<svg xmlns="http://www.w3.org/2000/svg" xmlns:xlink="http://www.w3.org/1999/xlink" width="1024" zoomAndPan="magnify" viewBox="0 0 768 767.999994" height="1024" preserveAspectRatio="xMidYMid meet" version="1.0"><defs><clipPath id="f0816a7156"><path d="M 23.21875 23.21875 L 744.71875 23.21875 L 744.71875 744.71875 L 23.21875 744.71875 Z M 23.21875 23.21875 " clip-rule="nonzero"/></clipPath></defs><g clip-path="url(#f0816a7156)"><path fill="#e55151" d="M 744.613281 383.894531 C 744.613281 389.796875 744.46875 395.695312 744.179688 401.59375 C 743.890625 407.488281 743.457031 413.375 742.878906 419.25 C 742.300781 425.125 741.578125 430.984375 740.710938 436.824219 C 739.84375 442.664062 738.835938 448.476562 737.683594 454.265625 C 736.53125 460.058594 735.238281 465.816406 733.804688 471.542969 C 732.371094 477.269531 730.796875 482.957031 729.082031 488.605469 C 727.367188 494.253906 725.515625 499.859375 723.527344 505.417969 C 721.539062 510.976562 719.414062 516.480469 717.15625 521.9375 C 714.898438 527.390625 712.503906 532.785156 709.980469 538.121094 C 707.457031 543.457031 704.804688 548.730469 702.019531 553.9375 C 699.238281 559.144531 696.328125 564.277344 693.292969 569.339844 C 690.257812 574.40625 687.101562 579.390625 683.820312 584.300781 C 680.542969 589.207031 677.144531 594.03125 673.628906 598.773438 C 670.109375 603.515625 666.480469 608.167969 662.734375 612.734375 C 658.988281 617.296875 655.132812 621.765625 651.171875 626.140625 C 647.207031 630.511719 643.136719 634.789062 638.960938 638.960938 C 634.789062 643.136719 630.511719 647.207031 626.140625 651.171875 C 621.765625 655.136719 617.296875 658.988281 612.734375 662.734375 C 608.167969 666.480469 603.515625 670.109375 598.773438 673.628906 C 594.03125 677.144531 589.207031 680.542969 584.300781 683.820312 C 579.390625 687.101562 574.40625 690.257812 569.339844 693.292969 C 564.277344 696.328125 559.144531 699.238281 553.9375 702.019531 C 548.730469 704.804688 543.457031 707.457031 538.121094 709.980469 C 532.785156 712.503906 527.390625 714.898438 521.9375 717.15625 C 516.480469 719.414062 510.976562 721.539062 505.417969 723.527344 C 499.859375 725.515625 494.253906 727.367188 488.605469 729.082031 C 482.957031 730.796875 477.269531 732.371094 471.542969 733.804688 C 465.816406 735.238281 460.058594 736.53125 454.265625 737.683594 C 448.476562 738.835938 442.664062 739.84375 436.824219 740.710938 C 430.984375 741.578125 425.125 742.300781 419.25 742.878906 C 413.375 743.457031 407.488281 743.890625 401.59375 744.179688 C 395.695312 744.46875 389.796875 744.613281 383.894531 744.613281 C 377.992188 744.613281 372.089844 744.46875 366.195312 744.179688 C 360.296875 743.890625 354.410156 743.457031 348.535156 742.878906 C 342.660156 742.300781 336.804688 741.578125 330.964844 740.710938 C 325.125 739.84375 319.3125 738.835938 313.519531 737.683594 C 307.730469 736.53125 301.972656 735.238281 296.246094 733.804688 C 290.519531 732.371094 284.832031 730.796875 279.183594 729.082031 C 273.53125 727.367188 267.929688 725.515625 262.371094 723.527344 C 256.8125 721.539062 251.304688 719.414062 245.851562 717.15625 C 240.398438 714.898438 235.003906 712.503906 229.664062 709.980469 C 224.328125 707.457031 219.058594 704.804688 213.851562 702.019531 C 208.644531 699.238281 203.511719 696.328125 198.445312 693.292969 C 193.382812 690.257812 188.398438 687.101562 183.488281 683.820312 C 178.578125 680.542969 173.753906 677.144531 169.011719 673.628906 C 164.269531 670.109375 159.617188 666.480469 155.054688 662.734375 C 150.492188 658.988281 146.023438 655.136719 141.648438 651.171875 C 137.273438 647.207031 133 643.136719 128.824219 638.960938 C 124.652344 634.789062 120.582031 630.511719 116.617188 626.140625 C 112.652344 621.765625 108.796875 617.296875 105.054688 612.734375 C 101.308594 608.167969 97.675781 603.515625 94.160156 598.773438 C 90.644531 594.03125 87.246094 589.207031 83.964844 584.300781 C 80.6875 579.390625 77.527344 574.40625 74.492188 569.339844 C 71.457031 564.277344 68.550781 559.144531 65.765625 553.9375 C 62.984375 548.730469 60.332031 543.457031 57.804688 538.121094 C 55.28125 532.785156 52.890625 527.390625 50.632812 521.9375 C 48.371094 516.480469 46.25 510.976562 44.257812 505.417969 C 42.269531 499.859375 40.417969 494.253906 38.707031 488.605469 C 36.992188 482.957031 35.417969 477.269531 33.984375 471.542969 C 32.550781 465.816406 31.257812 460.058594 30.105469 454.265625 C 28.953125 448.476562 27.945312 442.664062 27.078125 436.824219 C 26.210938 430.984375 25.488281 425.125 24.910156 419.25 C 24.332031 413.375 23.898438 407.488281 23.609375 401.59375 C 23.316406 395.695312 23.171875 389.796875 23.171875 383.894531 C 23.171875 377.992188 23.316406 372.089844 23.609375 366.195312 C 23.898438 360.296875 24.332031 354.410156 24.910156 348.535156 C 25.488281 342.660156 26.210938 336.804688 27.078125 330.964844 C 27.945312 325.125 28.953125 319.3125 30.105469 313.519531 C 31.257812 307.730469 32.550781 301.972656 33.984375 296.246094 C 35.417969 290.519531 36.992188 284.832031 38.707031 279.183594 C 40.417969 273.53125 42.269531 267.929688 44.257812 262.371094 C 46.25 256.8125 48.371094 251.304688 50.632812 245.851562 C 52.890625 240.398438 55.28125 235.003906 57.804688 229.664062 C 60.332031 224.328125 62.984375 219.058594 65.765625 213.851562 C 68.550781 208.644531 71.457031 203.511719 74.492188 198.445312 C 77.527344 193.382812 80.6875 188.398438 83.964844 183.488281 C 87.246094 178.578125 90.644531 173.753906 94.160156 169.011719 C 97.675781 164.269531 101.308594 159.617188 105.054688 155.054688 C 108.796875 150.492188 112.652344 146.023438 116.617188 141.648438 C 120.582031 137.273438 124.652344 133 128.824219 128.824219 C 133 124.652344 137.273438 120.582031 141.648438 116.617188 C 146.023438 112.652344 150.492188 108.796875 155.054688 105.054688 C 159.617188 101.308594 164.269531 97.675781 169.011719 94.160156 C 173.753906 90.644531 178.578125 87.246094 183.488281 83.964844 C 188.398438 80.6875 193.382812 77.527344 198.445312 74.492188 C 203.511719 71.457031 208.644531 68.550781 213.851562 65.765625 C 219.058594 62.984375 224.328125 60.332031 229.664062 57.804688 C 235.003906 55.28125 240.398438 52.890625 245.851562 50.632812 C 251.304688 48.371094 256.8125 46.25 262.371094 44.257812 C 267.929688 42.269531 273.53125 40.417969 279.183594 38.707031 C 284.832031 36.992188 290.519531 35.417969 296.246094 33.984375 C 301.972656 32.550781 307.730469 31.257812 313.519531 30.105469 C 319.3125 28.953125 325.125 27.945312 330.964844 27.078125 C 336.804688 26.210938 342.660156 25.488281 348.535156 24.910156 C 354.410156 24.332031 360.296875 23.898438 366.195312 23.609375 C 372.089844 23.316406 377.992188 23.171875 383.894531 23.171875 C 389.796875 23.171875 395.695312 23.316406 401.59375 23.609375 C 407.488281 23.898438 413.375 24.332031 419.25 24.910156 C 425.125 25.488281 430.984375 26.210938 436.824219 27.078125 C 442.664062 27.945312 448.476562 28.953125 454.265625 30.105469 C 460.058594 31.257812 465.816406 32.550781 471.542969 33.984375 C 477.269531 35.417969 482.957031 36.992188 488.605469 38.707031 C 494.253906 40.417969 499.859375 42.269531 505.417969 44.257812 C 510.976562 46.25 516.480469 48.371094 521.9375 50.632812 C 527.390625 52.890625 532.785156 55.28125 538.121094 57.804688 C 543.457031 60.332031 548.730469 62.984375 553.9375 65.765625 C 559.144531 68.550781 564.277344 71.457031 569.339844 74.492188 C 574.40625 77.527344 579.390625 80.6875 584.300781 83.964844 C 589.207031 87.246094 594.03125 90.644531 598.773438 94.160156 C 603.515625 97.675781 608.167969 101.308594 612.734375 105.054688 C 617.296875 108.796875 621.765625 112.652344 626.140625 116.617188 C 630.511719 120.582031 634.789062 124.652344 638.960938 128.824219 C 643.136719 133 647.207031 137.273438 651.171875 141.648438 C 655.132812 146.023438 658.988281 150.492188 662.734375 155.054688 C 666.480469 159.617188 670.109375 164.269531 673.628906 169.011719 C 677.144531 173.753906 680.542969 178.578125 683.820312 183.488281 C 687.101562 188.398438 690.257812 193.382812 693.292969 198.445312 C 696.328125 203.511719 699.238281 208.644531 702.019531 213.851562 C 704.804688 219.058594 707.457031 224.328125 709.980469 229.664062 C 712.503906 235.003906 714.898438 240.398438 717.15625 245.851562 C 719.414062 251.304688 721.539062 256.8125 723.527344 262.371094 C 725.515625 267.929688 727.367188 273.53125 729.082031 279.183594 C 730.796875 284.832031 732.371094 290.519531 733.804688 296.246094 C 735.238281 301.972656 736.53125 307.730469 737.683594 313.519531 C 738.835938 319.3125 739.84375 325.125 740.710938 330.964844 C 741.578125 336.804688 742.300781 342.660156 742.878906 348.535156 C 743.457031 354.410156 743.890625 360.296875 744.179688 366.195312 C 744.46875 372.089844 744.613281 377.992188 744.613281 383.894531 Z M 744.613281 383.894531 " fill-opacity="1" fill-rule="nonzero"/></g><path fill="#ffffff" d="M 244.3125 558.195312 L 244.3125 209.59375 L 523.476562 209.59375 L 523.476562 558.195312 L 393.40625 443.324219 Z M 244.3125 558.195312 " fill-opacity="1" fill-rule="nonzero"/></svg>