<svg xmlns="http://www.w3.org/2000/svg" xmlns:xlink="http://www.w3.org/1999/xlink" width="1024" zoomAndPan="magnify" viewBox="0 0 768 767.999994" height="1024" preserveAspectRatio="xMidYMid meet" version="1.0"><defs><clipPath id="9e9ad633e7"><path d="M 384 384 L 729.898438 384 L 729.898438 729.898438 L 384 729.898438 Z M 384 384 " clip-rule="nonzero"/></clipPath><clipPath id="cc286871ce"><path d="M 384 38.398438 L 729.898438 38.398438 L 729.898438 385 L 384 385 Z M 384 38.398438 " clip-rule="nonzero"/></clipPath><clipPath id="e3e21c5c26"><path d="M 38.398438 38.398438 L 385 38.398438 L 385 385 L 38.398438 385 Z M 38.398438 38.398438 " clip-rule="nonzero"/></clipPath><clipPath id="146f877ae6"><path d="M 38.398438 384 L 385 384 L 385 729.898438 L 38.398438 729.898438 Z M 38.398438 384 " clip-rule="nonzero"/></clipPath></defs><g clip-path="url(#9e9ad633e7)"><path fill="#1ea6bc" d="M 384.148438 384.148438 L 384.148438 729.898438 C 439.46875 729.898438 491.722656 716.90625 538.066406 693.820312 C 651.773438 637.214844 729.898438 519.773438 729.898438 384.148438 Z M 384.148438 384.148438 " fill-opacity="1" fill-rule="nonzero"/></g><g clip-path="url(#cc286871ce)"><path fill="#53b599" d="M 384.148438 38.398438 L 384.148438 384.148438 L 729.898438 384.148438 C 729.898438 193.207031 575.09375 38.398438 384.148438 38.398438 Z M 384.148438 38.398438 " fill-opacity="1" fill-rule="nonzero"/></g><g clip-path="url(#e3e21c5c26)"><path fill="#f48ca7" d="M 140.5625 138.777344 C 77.492188 201.40625 38.398438 288.230469 38.398438 384.148438 L 384.148438 384.148438 L 384.148438 38.398438 C 289.125 38.398438 203.078125 76.710938 140.5625 138.777344 Z M 140.5625 138.777344 " fill-opacity="1" fill-rule="nonzero"/></g><g clip-path="url(#146f877ae6)"><path fill="#ffc05a" d="M 38.398438 384.148438 C 38.398438 575.09375 193.207031 729.898438 384.148438 729.898438 L 384.148438 384.148438 Z M 38.398438 384.148438 " fill-opacity="1" fill-rule="nonzero"/></g><path fill="#acccc6" d="M 606.769531 506.390625 L 606.769531 618.199219 C 606.769531 627.402344 599.296875 634.929688 590.039062 634.929688 L 540.183594 634.929688 C 540.296875 634.371094 540.351562 633.816406 540.351562 633.203125 L 540.351562 591.320312 C 540.351562 589.371094 539.792969 587.472656 538.84375 585.800781 C 537.839844 584.183594 536.390625 582.84375 534.605469 581.953125 C 528.027344 578.664062 520.441406 574.925781 512.078125 571.191406 L 512.078125 506.390625 Z M 606.769531 506.390625 " fill-opacity="1" fill-rule="nonzero"/><path fill="#d6eae8" d="M 606.769531 495.847656 L 606.769531 506.390625 L 512.078125 506.390625 L 512.078125 495.847656 C 512.078125 476.277344 525.515625 459.824219 543.640625 455.195312 L 543.640625 427.480469 L 575.203125 427.480469 L 575.203125 455.195312 C 593.328125 459.824219 606.769531 476.277344 606.769531 495.847656 Z M 606.769531 495.847656 " fill-opacity="1" fill-rule="nonzero"/><path fill="#acccc6" d="M 575.203125 411.699219 L 575.203125 427.480469 L 543.640625 427.480469 L 543.640625 411.699219 C 543.640625 408.796875 546.039062 406.457031 548.9375 406.457031 L 569.960938 406.457031 C 572.863281 406.457031 575.203125 408.796875 575.203125 411.699219 Z M 575.203125 411.699219 " fill-opacity="1" fill-rule="nonzero"/><path fill="#e58e1a" d="M 524.011719 616.304688 C 526.1875 620.878906 524.066406 626.453125 519.269531 628.742188 C 514.476562 631.027344 508.84375 629.1875 506.613281 624.613281 C 504.4375 620.039062 506.558594 614.464844 511.351562 612.175781 C 516.148438 609.835938 521.78125 611.730469 524.011719 616.304688 Z M 524.011719 616.304688 " fill-opacity="1" fill-rule="nonzero"/><path fill="#e58e1a" d="M 479.285156 625.5625 C 483.414062 627.960938 484.808594 633.203125 481.351562 639.167969 C 478.339844 644.355469 472.652344 646.585938 468.523438 644.242188 C 464.398438 641.84375 463.058594 636.546875 466.460938 630.636719 C 469.75 625.003906 475.214844 623.21875 479.285156 625.5625 Z M 479.285156 625.5625 " fill-opacity="1" fill-rule="nonzero"/><path fill="#e58e1a" d="M 460.382812 570.855469 C 465.734375 570.855469 470.03125 574.480469 470.03125 578.886719 C 470.03125 583.347656 465.734375 586.972656 460.382812 586.972656 C 455.085938 586.972656 450.734375 583.347656 450.734375 578.886719 C 450.734375 574.480469 455.085938 570.855469 460.382812 570.855469 Z M 460.382812 570.855469 " fill-opacity="1" fill-rule="nonzero"/><path fill="#ffc05a" d="M 540.351562 591.320312 L 540.351562 633.203125 C 540.351562 633.816406 540.296875 634.371094 540.183594 634.929688 C 539.792969 637.496094 538.453125 639.835938 536.449219 641.453125 C 518.042969 656.234375 485.199219 661.195312 458.097656 662.589844 C 457.59375 656.066406 452.464844 650.933594 446.160156 650.933594 C 439.691406 650.933594 434.449219 656.289062 434.171875 662.980469 C 421.847656 662.8125 413.707031 662.089844 413.707031 662.089844 C 409.914062 645.023438 408.128906 615.746094 407.515625 603.476562 C 407.40625 601.582031 407.40625 599.6875 407.570312 597.847656 C 422.292969 600.800781 500.925781 609.667969 538.789062 585.800781 L 538.84375 585.800781 C 539.792969 587.472656 540.351562 589.371094 540.351562 591.320312 Z M 519.269531 628.742188 C 524.066406 626.453125 526.1875 620.878906 524.011719 616.304688 C 521.78125 611.730469 516.148438 609.835938 511.351562 612.175781 C 506.558594 614.464844 504.4375 620.039062 506.613281 624.613281 C 508.84375 629.1875 514.476562 631.027344 519.269531 628.742188 Z M 481.351562 639.167969 C 484.808594 633.203125 483.414062 627.960938 479.285156 625.5625 C 475.214844 623.21875 469.75 625.003906 466.460938 630.636719 C 463.058594 636.546875 464.398438 641.84375 468.523438 644.242188 C 472.652344 646.585938 478.339844 644.355469 481.351562 639.167969 Z M 481.351562 639.167969 " fill-opacity="1" fill-rule="nonzero"/><path fill="#f9b132" d="M 538.84375 585.800781 L 538.789062 585.800781 C 500.925781 609.667969 422.292969 600.800781 407.570312 597.847656 C 407.738281 595.390625 408.128906 592.996094 408.855469 590.597656 C 412.703125 577.324219 420.84375 566.058594 425.972656 559.8125 C 428.820312 556.410156 432.945312 554.347656 437.40625 554.070312 C 463.953125 552.5625 490.496094 561.652344 512.078125 571.191406 C 520.441406 574.925781 528.027344 578.664062 534.605469 581.953125 C 536.390625 582.84375 537.839844 584.183594 538.84375 585.800781 Z M 470.03125 578.886719 C 470.03125 574.480469 465.734375 570.855469 460.382812 570.855469 C 455.085938 570.855469 450.734375 574.480469 450.734375 578.886719 C 450.734375 583.347656 455.085938 586.972656 460.382812 586.972656 C 465.734375 586.972656 470.03125 583.347656 470.03125 578.886719 Z M 470.03125 578.886719 " fill-opacity="1" fill-rule="nonzero"/><path fill="#ad6a6a" d="M 688.96875 284.996094 C 691.03125 294.199219 686.066406 302.5625 678.429688 305.796875 C 682.386719 310.203125 684.339844 316.394531 682.441406 323.140625 C 680.714844 329.277344 675.582031 334.128906 669.339844 335.578125 C 657.460938 338.253906 646.976562 329.332031 646.976562 317.957031 L 624.667969 307.972656 C 632.699219 298.996094 633.425781 287.117188 632.867188 279.589844 C 632.8125 278.917969 632.699219 278.25 632.53125 277.636719 L 654.058594 283.660156 C 656.847656 274.960938 665.9375 269.160156 675.917969 271.613281 C 682.386719 273.230469 687.519531 278.527344 688.96875 284.996094 Z M 688.96875 284.996094 " fill-opacity="1" fill-rule="nonzero"/><path fill="#9e4949" d="M 632.867188 279.589844 C 633.425781 287.117188 632.699219 298.996094 624.667969 307.972656 C 621.769531 311.152344 617.253906 312.324219 613.125 311.039062 L 596.003906 305.742188 C 593.941406 305.074219 591.65625 305.796875 590.207031 307.414062 C 537.898438 365.746094 441.589844 340.539062 435.734375 338.921875 C 458.320312 343.160156 484.976562 305.183594 495.402344 253.878906 C 505.777344 202.910156 496.296875 157.851562 474.15625 152.441406 C 483.636719 154.671875 585.410156 180.4375 604.480469 259.289062 C 604.929688 261.074219 606.15625 262.523438 607.882812 263.191406 L 625.730469 269.996094 C 629.128906 271.335938 631.640625 274.179688 632.53125 277.636719 C 632.699219 278.25 632.8125 278.917969 632.867188 279.589844 Z M 549.21875 299.441406 C 549.21875 296.375 546.765625 293.863281 543.640625 293.863281 C 540.574219 293.863281 538.066406 296.375 538.066406 299.441406 C 538.066406 302.507812 540.574219 305.019531 543.640625 305.019531 C 546.765625 305.019531 549.21875 302.507812 549.21875 299.441406 Z M 520.664062 319.964844 C 520.664062 316.839844 518.15625 314.386719 515.089844 314.386719 C 512.023438 314.386719 509.511719 316.839844 509.511719 319.964844 C 509.511719 323.03125 512.023438 325.539062 515.089844 325.539062 C 518.15625 325.539062 520.664062 323.03125 520.664062 319.964844 Z M 520.664062 319.964844 " fill-opacity="1" fill-rule="nonzero"/><path fill="#fec4b9" d="M 549.21875 299.441406 C 549.21875 299.808594 549.183594 300.171875 549.109375 300.527344 C 549.039062 300.886719 548.933594 301.238281 548.792969 301.574219 C 548.652344 301.914062 548.480469 302.234375 548.277344 302.539062 C 548.074219 302.84375 547.84375 303.125 547.585938 303.382812 C 547.324219 303.644531 547.042969 303.875 546.738281 304.078125 C 546.433594 304.28125 546.113281 304.453125 545.773438 304.59375 C 545.4375 304.734375 545.089844 304.839844 544.730469 304.910156 C 544.371094 304.980469 544.007812 305.019531 543.640625 305.019531 C 543.273438 305.019531 542.914062 304.980469 542.554688 304.910156 C 542.195312 304.839844 541.84375 304.734375 541.507812 304.59375 C 541.167969 304.453125 540.847656 304.28125 540.542969 304.078125 C 540.238281 303.875 539.957031 303.644531 539.699219 303.382812 C 539.4375 303.125 539.207031 302.84375 539.003906 302.539062 C 538.800781 302.234375 538.628906 301.914062 538.488281 301.574219 C 538.347656 301.238281 538.242188 300.886719 538.171875 300.527344 C 538.101562 300.171875 538.066406 299.808594 538.066406 299.441406 C 538.066406 299.074219 538.101562 298.710938 538.171875 298.351562 C 538.242188 297.996094 538.347656 297.644531 538.488281 297.308594 C 538.628906 296.96875 538.800781 296.648438 539.003906 296.34375 C 539.207031 296.039062 539.4375 295.757812 539.699219 295.496094 C 539.957031 295.238281 540.238281 295.007812 540.542969 294.804688 C 540.847656 294.601562 541.167969 294.429688 541.507812 294.289062 C 541.84375 294.148438 542.195312 294.042969 542.554688 293.972656 C 542.914062 293.898438 543.273438 293.863281 543.640625 293.863281 C 544.007812 293.863281 544.371094 293.898438 544.730469 293.972656 C 545.089844 294.042969 545.4375 294.148438 545.773438 294.289062 C 546.113281 294.429688 546.433594 294.601562 546.738281 294.804688 C 547.042969 295.007812 547.324219 295.238281 547.585938 295.496094 C 547.84375 295.757812 548.074219 296.039062 548.277344 296.34375 C 548.480469 296.648438 548.652344 296.96875 548.792969 297.308594 C 548.933594 297.644531 549.039062 297.996094 549.109375 298.351562 C 549.183594 298.710938 549.21875 299.074219 549.21875 299.441406 Z M 549.21875 299.441406 " fill-opacity="1" fill-rule="nonzero"/><path fill="#fec4b9" d="M 520.664062 319.964844 C 520.664062 320.328125 520.628906 320.691406 520.558594 321.050781 C 520.488281 321.410156 520.382812 321.757812 520.242188 322.097656 C 520.101562 322.433594 519.929688 322.757812 519.726562 323.0625 C 519.523438 323.367188 519.289062 323.648438 519.03125 323.90625 C 518.773438 324.164062 518.492188 324.398438 518.1875 324.601562 C 517.882812 324.804688 517.5625 324.976562 517.222656 325.117188 C 516.882812 325.253906 516.535156 325.359375 516.175781 325.433594 C 515.816406 325.503906 515.453125 325.539062 515.089844 325.539062 C 514.722656 325.539062 514.359375 325.503906 514 325.433594 C 513.640625 325.359375 513.292969 325.253906 512.953125 325.117188 C 512.617188 324.976562 512.296875 324.804688 511.992188 324.601562 C 511.6875 324.398438 511.40625 324.164062 511.144531 323.90625 C 510.886719 323.648438 510.65625 323.367188 510.453125 323.0625 C 510.25 322.757812 510.078125 322.433594 509.9375 322.097656 C 509.796875 321.757812 509.691406 321.410156 509.621094 321.050781 C 509.546875 320.691406 509.511719 320.328125 509.511719 319.964844 C 509.511719 319.597656 509.546875 319.234375 509.621094 318.875 C 509.691406 318.515625 509.796875 318.167969 509.9375 317.828125 C 510.078125 317.492188 510.25 317.167969 510.453125 316.863281 C 510.65625 316.558594 510.886719 316.277344 511.144531 316.019531 C 511.40625 315.761719 511.6875 315.53125 511.992188 315.328125 C 512.296875 315.121094 512.617188 314.953125 512.953125 314.8125 C 513.292969 314.671875 513.640625 314.566406 514 314.492188 C 514.359375 314.421875 514.722656 314.386719 515.089844 314.386719 C 515.453125 314.386719 515.816406 314.421875 516.175781 314.492188 C 516.535156 314.566406 516.882812 314.671875 517.222656 314.8125 C 517.5625 314.953125 517.882812 315.121094 518.1875 315.328125 C 518.492188 315.53125 518.773438 315.761719 519.03125 316.019531 C 519.289062 316.277344 519.523438 316.558594 519.726562 316.863281 C 519.929688 317.167969 520.101562 317.492188 520.242188 317.828125 C 520.382812 318.167969 520.488281 318.515625 520.558594 318.875 C 520.628906 319.234375 520.664062 319.597656 520.664062 319.964844 Z M 520.664062 319.964844 " fill-opacity="1" fill-rule="nonzero"/><path fill="#ad6a6a" d="M 474.15625 152.441406 C 496.296875 157.851562 505.777344 202.910156 495.402344 253.878906 C 484.976562 305.183594 458.320312 343.160156 435.734375 338.921875 C 435.566406 338.867188 435.453125 338.867188 435.453125 338.867188 C 412.8125 334.296875 403 288.734375 413.484375 237.207031 C 423.96875 185.679688 450.789062 147.644531 473.429688 152.273438 C 473.429688 152.273438 473.65625 152.332031 474.15625 152.441406 Z M 466.683594 245.792969 C 469.640625 231.296875 466.238281 218.300781 459.042969 216.851562 C 451.851562 215.402344 443.597656 225.996094 440.640625 240.496094 C 437.683594 255.050781 441.144531 268.042969 448.335938 269.496094 C 455.53125 270.945312 463.726562 260.347656 466.683594 245.792969 Z M 466.683594 245.792969 " fill-opacity="1" fill-rule="nonzero"/><path fill="#9e4949" d="M 459.042969 216.851562 C 466.238281 218.300781 469.640625 231.296875 466.683594 245.792969 C 463.726562 260.347656 455.53125 270.945312 448.335938 269.496094 C 441.144531 268.046875 437.683594 255.050781 440.640625 240.496094 C 443.597656 225.996094 451.851562 215.402344 459.042969 216.851562 Z M 459.042969 216.851562 " fill-opacity="1" fill-rule="nonzero"/><path fill="#dfa3a5" d="M 356.601562 255.164062 L 356.601562 342.4375 C 356.601562 347.957031 352.53125 352.699219 347.066406 353.480469 L 289.347656 361.84375 L 293.699219 254.660156 C 296.09375 221.035156 326.488281 204.640625 328.382812 183.390625 C 334.628906 211.945312 354.871094 225.886719 356.601562 255.164062 Z M 356.601562 255.164062 " fill-opacity="1" fill-rule="nonzero"/><path fill="#dfa3a5" d="M 328.382812 155.507812 L 328.382812 183.390625 L 155.507812 183.390625 L 155.507812 155.507812 C 155.507812 152.441406 158.019531 149.933594 161.085938 149.933594 L 322.808594 149.933594 C 325.875 149.933594 328.382812 152.441406 328.382812 155.507812 Z M 328.382812 155.507812 " fill-opacity="1" fill-rule="nonzero"/><path fill="#fec4b9" d="M 230.792969 227.335938 L 230.847656 227.335938 C 274.902344 218.746094 256.5 194.210938 233.582031 211.273438 C 226.277344 186.179688 198.226562 209.210938 231.128906 226.054688 C 231.015625 226.5 230.90625 226.890625 230.792969 227.335938 Z M 225.496094 244.066406 C 224.9375 245.570312 224.378906 247.078125 223.710938 248.582031 C 210.214844 218.582031 188.96875 228.507812 215.289062 266.371094 C 216.183594 264.644531 217.074219 262.914062 217.96875 261.128906 C 267.542969 265.648438 263.582031 237.765625 225.496094 244.066406 Z M 171.679688 328.050781 C 230.347656 338.144531 224.546875 306.300781 182.777344 314.832031 C 170.621094 267.988281 152.050781 301.671875 171.679688 328.050781 Z M 194.824219 298.882812 C 195.4375 298.101562 195.996094 297.320312 196.554688 296.484375 L 196.609375 296.484375 C 238.320312 304.015625 256.613281 274.234375 208.261719 278.753906 L 208.207031 278.753906 C 207.203125 280.425781 206.144531 282.097656 205.085938 283.769531 C 195.382812 248.527344 171.738281 260.292969 194.824219 298.882812 Z M 155.507812 183.390625 L 328.382812 183.390625 C 326.488281 204.640625 296.09375 221.035156 293.699219 254.660156 L 289.347656 361.84375 L 122.050781 361.84375 L 122.050781 244.734375 C 122.050781 217.519531 137.609375 201.960938 155.507812 183.390625 Z M 155.507812 183.390625 " fill-opacity="1" fill-rule="nonzero"/><path fill="#ef9d26" d="M 311.152344 565.890625 C 332.289062 566.226562 343.386719 589.871094 323.253906 605.820312 C 315.054688 612.34375 316.171875 613.851562 311.988281 620.820312 C 294.03125 650.710938 248.136719 656.902344 218.46875 643.296875 C 216.683594 642.457031 214.675781 642.179688 212.726562 642.457031 C 184.117188 646.195312 174.691406 619.148438 193.152344 602.140625 C 194.824219 600.632812 195.996094 598.683594 196.496094 596.507812 C 197.835938 590.597656 199.953125 585.296875 202.796875 580.558594 C 221.589844 548.9375 269.996094 542.246094 296.933594 558.027344 C 299.554688 559.589844 302.007812 561.375 304.179688 563.328125 C 306.078125 565.054688 308.585938 565.890625 311.152344 565.890625 Z M 263.359375 621.824219 C 263.359375 618.757812 260.90625 616.25 257.785156 616.25 C 254.71875 616.25 252.207031 618.757812 252.207031 621.824219 C 252.207031 624.949219 254.71875 627.402344 257.785156 627.402344 C 260.90625 627.402344 263.359375 624.949219 263.359375 621.824219 Z M 244.734375 629.355469 C 244.734375 626.285156 242.226562 623.777344 239.15625 623.777344 C 236.089844 623.777344 233.582031 626.285156 233.582031 629.355469 C 233.582031 632.421875 236.089844 634.929688 239.15625 634.929688 C 242.226562 634.929688 244.734375 632.421875 244.734375 629.355469 Z M 233.582031 612.457031 C 233.582031 609.390625 231.070312 606.878906 228.003906 606.878906 C 224.9375 606.878906 222.429688 609.390625 222.429688 612.457031 C 222.429688 615.523438 224.9375 618.03125 228.003906 618.03125 C 231.070312 618.03125 233.582031 615.523438 233.582031 612.457031 Z M 233.582031 612.457031 " fill-opacity="1" fill-rule="nonzero"/><path fill="#ef9d26" d="M 270.777344 506.054688 L 270.722656 506.054688 C 264.585938 497.1875 257.785156 488.542969 250.421875 480.902344 C 250.421875 480.902344 272.226562 463.449219 273.121094 431.886719 C 273.230469 428.261719 274.960938 424.972656 277.636719 423.019531 C 279.199219 421.847656 281.09375 421.121094 283.15625 421.066406 C 307.640625 420.175781 324.703125 445.382812 320.6875 462.667969 L 320.742188 462.722656 C 299.777344 489.605469 272.5625 505.050781 270.777344 506.054688 Z M 270.777344 506.054688 " fill-opacity="1" fill-rule="nonzero"/><path fill="#f9b132" d="M 298.996094 441.65625 C 298.386719 438.644531 295.46875 436.660156 292.4375 437.300781 C 289.421875 437.902344 287.460938 440.84375 288.058594 443.859375 C 288.34375 445.292969 294.40625 477.640625 271.269531 498.460938 C 269.171875 500.351562 268.914062 503.554688 270.605469 505.824219 C 272.574219 508.476562 276.421875 508.84375 278.875 506.632812 C 306.652344 481.539062 299.339844 443.355469 298.996094 441.65625 Z M 298.996094 441.65625 " fill-opacity="1" fill-rule="nonzero"/><path fill="#e15c63" d="M 287.003906 533.882812 C 289.292969 538.511719 291.300781 543.027344 293.027344 547.320312 C 294.535156 551.058594 295.871094 554.628906 296.933594 558.027344 C 269.996094 542.246094 221.589844 548.9375 202.796875 580.558594 C 202.796875 580.558594 122.550781 554.960938 137.886719 498.414062 C 139.335938 493.117188 141.566406 487.539062 144.859375 481.683594 C 149.597656 473.207031 155.953125 465.570312 163.875 460.046875 C 167.332031 457.59375 170.84375 455.699219 174.359375 454.191406 C 201.070312 442.871094 228.226562 457.648438 250.421875 480.902344 C 257.785156 488.542969 264.585938 497.1875 270.722656 506.054688 L 270.722656 506.109375 C 276.96875 515.3125 282.488281 524.792969 287.003906 533.882812 Z M 287.003906 533.882812 " fill-opacity="1" fill-rule="nonzero"/><path fill="#e58e1a" d="M 287.003906 533.882812 C 282.488281 524.792969 276.96875 515.3125 270.722656 506.109375 L 270.722656 506.054688 L 270.777344 506.054688 C 272.5625 505.050781 299.777344 489.605469 320.742188 462.722656 C 322.359375 460.605469 323.976562 458.429688 325.539062 456.144531 C 328.441406 451.90625 333.011719 449.507812 337.753906 449.117188 C 341.878906 448.78125 346.117188 449.953125 349.464844 452.796875 C 380.859375 479.230469 348.570312 549.496094 293.027344 547.320312 C 291.300781 543.027344 289.292969 538.511719 287.003906 533.882812 Z M 287.003906 533.882812 " fill-opacity="1" fill-rule="nonzero"/><path fill="#ffc05a" d="M 263.359375 621.824219 C 263.359375 622.191406 263.324219 622.554688 263.253906 622.914062 C 263.183594 623.273438 263.074219 623.621094 262.9375 623.960938 C 262.796875 624.296875 262.625 624.617188 262.421875 624.921875 C 262.21875 625.226562 261.984375 625.507812 261.726562 625.769531 C 261.46875 626.027344 261.1875 626.257812 260.882812 626.460938 C 260.578125 626.664062 260.257812 626.835938 259.917969 626.976562 C 259.578125 627.117188 259.230469 627.222656 258.871094 627.292969 C 258.511719 627.367188 258.148438 627.402344 257.785156 627.402344 C 257.417969 627.402344 257.054688 627.367188 256.695312 627.292969 C 256.335938 627.222656 255.988281 627.117188 255.648438 626.976562 C 255.3125 626.835938 254.988281 626.664062 254.6875 626.460938 C 254.382812 626.257812 254.097656 626.027344 253.839844 625.769531 C 253.582031 625.507812 253.351562 625.226562 253.148438 624.921875 C 252.945312 624.617188 252.773438 624.296875 252.632812 623.960938 C 252.492188 623.621094 252.386719 623.273438 252.316406 622.914062 C 252.242188 622.554688 252.207031 622.191406 252.207031 621.824219 C 252.207031 621.460938 252.242188 621.097656 252.3125 620.738281 C 252.386719 620.378906 252.492188 620.03125 252.632812 619.691406 C 252.773438 619.351562 252.945312 619.03125 253.148438 618.726562 C 253.351562 618.421875 253.582031 618.140625 253.839844 617.882812 C 254.097656 617.621094 254.382812 617.390625 254.6875 617.1875 C 254.988281 616.984375 255.3125 616.8125 255.648438 616.671875 C 255.988281 616.53125 256.335938 616.425781 256.695312 616.355469 C 257.054688 616.285156 257.417969 616.25 257.785156 616.25 C 258.148438 616.25 258.511719 616.285156 258.871094 616.355469 C 259.230469 616.425781 259.578125 616.53125 259.917969 616.671875 C 260.257812 616.8125 260.578125 616.984375 260.882812 617.1875 C 261.1875 617.390625 261.46875 617.621094 261.726562 617.882812 C 261.984375 618.140625 262.21875 618.421875 262.421875 618.726562 C 262.625 619.03125 262.796875 619.351562 262.9375 619.691406 C 263.074219 620.03125 263.183594 620.378906 263.253906 620.738281 C 263.324219 621.097656 263.359375 621.460938 263.359375 621.824219 Z M 263.359375 621.824219 " fill-opacity="1" fill-rule="nonzero"/><path fill="#3b9b78" d="M 233.582031 211.273438 C 256.5 194.210938 274.902344 218.746094 230.847656 227.335938 L 230.792969 227.335938 C 230.90625 226.890625 231.015625 226.5 231.128906 226.054688 C 232.300781 221.089844 233.136719 216.183594 233.582031 211.273438 Z M 233.582031 211.273438 " fill-opacity="1" fill-rule="nonzero"/><path fill="#ffc05a" d="M 244.734375 629.355469 C 244.734375 629.71875 244.699219 630.082031 244.628906 630.441406 C 244.554688 630.800781 244.449219 631.148438 244.308594 631.488281 C 244.171875 631.824219 244 632.148438 243.792969 632.453125 C 243.589844 632.757812 243.359375 633.039062 243.101562 633.296875 C 242.84375 633.554688 242.5625 633.785156 242.257812 633.992188 C 241.953125 634.195312 241.628906 634.367188 241.292969 634.503906 C 240.953125 634.644531 240.605469 634.75 240.246094 634.824219 C 239.886719 634.894531 239.523438 634.929688 239.15625 634.929688 C 238.792969 634.929688 238.429688 634.894531 238.070312 634.824219 C 237.710938 634.75 237.363281 634.644531 237.023438 634.503906 C 236.6875 634.367188 236.363281 634.195312 236.058594 633.992188 C 235.753906 633.785156 235.472656 633.554688 235.214844 633.296875 C 234.957031 633.039062 234.726562 632.757812 234.519531 632.453125 C 234.316406 632.148438 234.144531 631.824219 234.007812 631.488281 C 233.867188 631.148438 233.761719 630.800781 233.6875 630.441406 C 233.617188 630.082031 233.582031 629.71875 233.582031 629.355469 C 233.582031 628.988281 233.617188 628.625 233.6875 628.265625 C 233.761719 627.90625 233.867188 627.558594 234.007812 627.21875 C 234.144531 626.882812 234.316406 626.558594 234.519531 626.253906 C 234.726562 625.949219 234.957031 625.667969 235.214844 625.410156 C 235.472656 625.152344 235.753906 624.921875 236.058594 624.71875 C 236.363281 624.511719 236.6875 624.339844 237.023438 624.203125 C 237.363281 624.0625 237.710938 623.957031 238.070312 623.882812 C 238.429688 623.8125 238.792969 623.777344 239.15625 623.777344 C 239.523438 623.777344 239.886719 623.8125 240.246094 623.882812 C 240.605469 623.957031 240.953125 624.0625 241.292969 624.203125 C 241.628906 624.339844 241.953125 624.511719 242.257812 624.71875 C 242.5625 624.921875 242.84375 625.152344 243.101562 625.410156 C 243.359375 625.667969 243.589844 625.949219 243.792969 626.253906 C 244 626.558594 244.171875 626.882812 244.308594 627.21875 C 244.449219 627.558594 244.554688 627.90625 244.628906 628.265625 C 244.699219 628.625 244.734375 628.988281 244.734375 629.355469 Z M 244.734375 629.355469 " fill-opacity="1" fill-rule="nonzero"/><path fill="#3b9b78" d="M 225.496094 244.066406 C 263.582031 237.765625 267.542969 265.648438 217.96875 261.128906 C 220.03125 257.003906 221.980469 252.820312 223.710938 248.582031 C 224.378906 247.078125 224.9375 245.570312 225.496094 244.066406 Z M 225.496094 244.066406 " fill-opacity="1" fill-rule="nonzero"/><path fill="#3b9b78" d="M 233.582031 211.273438 C 233.136719 216.183594 232.300781 221.089844 231.128906 226.054688 C 198.226562 209.210938 226.277344 186.179688 233.582031 211.273438 Z M 233.582031 211.273438 " fill-opacity="1" fill-rule="nonzero"/><path fill="#ffc05a" d="M 233.582031 612.457031 C 233.582031 612.824219 233.546875 613.183594 233.472656 613.542969 C 233.402344 613.902344 233.296875 614.253906 233.15625 614.589844 C 233.015625 614.929688 232.84375 615.25 232.640625 615.554688 C 232.4375 615.859375 232.207031 616.140625 231.949219 616.398438 C 231.6875 616.660156 231.40625 616.890625 231.101562 617.09375 C 230.796875 617.296875 230.476562 617.46875 230.140625 617.609375 C 229.800781 617.75 229.453125 617.855469 229.09375 617.925781 C 228.734375 617.996094 228.371094 618.03125 228.003906 618.03125 C 227.636719 618.03125 227.277344 617.996094 226.917969 617.925781 C 226.558594 617.855469 226.210938 617.75 225.871094 617.609375 C 225.53125 617.46875 225.210938 617.296875 224.90625 617.09375 C 224.601562 616.890625 224.320312 616.660156 224.0625 616.398438 C 223.800781 616.140625 223.570312 615.859375 223.367188 615.554688 C 223.164062 615.25 222.992188 614.929688 222.851562 614.589844 C 222.710938 614.253906 222.605469 613.902344 222.535156 613.542969 C 222.464844 613.183594 222.429688 612.824219 222.429688 612.457031 C 222.429688 612.089844 222.464844 611.726562 222.535156 611.367188 C 222.605469 611.007812 222.710938 610.660156 222.851562 610.324219 C 222.992188 609.984375 223.164062 609.664062 223.367188 609.359375 C 223.570312 609.054688 223.800781 608.773438 224.0625 608.511719 C 224.320312 608.253906 224.601562 608.023438 224.90625 607.820312 C 225.210938 607.617188 225.53125 607.445312 225.871094 607.304688 C 226.210938 607.164062 226.558594 607.058594 226.917969 606.988281 C 227.277344 606.914062 227.636719 606.878906 228.003906 606.878906 C 228.371094 606.878906 228.734375 606.914062 229.09375 606.988281 C 229.453125 607.058594 229.800781 607.164062 230.140625 607.304688 C 230.476562 607.445312 230.796875 607.617188 231.101562 607.820312 C 231.40625 608.023438 231.6875 608.253906 231.949219 608.511719 C 232.207031 608.773438 232.4375 609.054688 232.640625 609.359375 C 232.84375 609.664062 233.015625 609.984375 233.15625 610.324219 C 233.296875 610.660156 233.402344 611.007812 233.472656 611.367188 C 233.546875 611.726562 233.582031 612.089844 233.582031 612.457031 Z M 233.582031 612.457031 " fill-opacity="1" fill-rule="nonzero"/><path fill="#3b9b78" d="M 208.261719 278.753906 C 256.613281 274.234375 238.320312 304.015625 196.609375 296.484375 L 196.554688 296.484375 L 196.554688 296.429688 C 199.453125 292.414062 202.296875 288.175781 205.085938 283.828125 L 205.085938 283.769531 C 206.144531 282.097656 207.203125 280.425781 208.207031 278.753906 Z M 208.261719 278.753906 " fill-opacity="1" fill-rule="nonzero"/><path fill="#3b9b78" d="M 223.710938 248.582031 C 221.980469 252.820312 220.03125 257.003906 217.96875 261.128906 C 217.074219 262.914062 216.183594 264.644531 215.289062 266.371094 C 188.96875 228.507812 210.214844 218.582031 223.710938 248.582031 Z M 223.710938 248.582031 " fill-opacity="1" fill-rule="nonzero"/><path fill="#3b9b78" d="M 205.085938 283.769531 L 205.085938 283.828125 C 202.296875 288.175781 199.453125 292.414062 196.554688 296.429688 L 196.554688 296.484375 C 195.996094 297.320312 195.4375 298.101562 194.824219 298.882812 C 171.738281 260.292969 195.382812 248.527344 205.085938 283.769531 Z M 205.085938 283.769531 " fill-opacity="1" fill-rule="nonzero"/><path fill="#3b9b78" d="M 182.777344 314.832031 C 224.546875 306.300781 230.347656 338.144531 171.679688 328.050781 C 174.914062 324.367188 178.707031 319.964844 182.777344 314.832031 Z M 182.777344 314.832031 " fill-opacity="1" fill-rule="nonzero"/><path fill="#3b9b78" d="M 148.539062 445.996094 C 146.640625 423.242188 176.421875 427.035156 174.359375 454.191406 C 170.84375 455.699219 167.332031 457.59375 163.875 460.046875 C 155.953125 465.570312 149.597656 473.207031 144.859375 481.683594 C 141.566406 487.539062 139.335938 493.117188 137.886719 498.414062 C 110.394531 507.503906 99.242188 477.390625 124.671875 471.257812 C 110.839844 459.65625 128.519531 430.15625 148.539062 445.996094 Z M 148.539062 445.996094 " fill-opacity="1" fill-rule="nonzero"/><path fill="#3b9b78" d="M 182.777344 314.832031 C 178.707031 319.964844 174.914062 324.367188 171.679688 328.050781 C 152.050781 301.671875 170.621094 267.988281 182.777344 314.832031 Z M 182.777344 314.832031 " fill-opacity="1" fill-rule="nonzero"/><path fill="#f9b132" d="M 179.210938 528.808594 C 178.511719 528.808594 177.804688 528.671875 177.113281 528.394531 C 174.261719 527.234375 172.890625 523.988281 174.046875 521.140625 C 174.476562 520.074219 184.824219 494.96875 204.125 485.4375 C 206.890625 484.066406 210.226562 485.203125 211.59375 487.96875 C 212.960938 490.730469 211.828125 494.078125 209.0625 495.4375 C 193.597656 503.078125 184.46875 525.109375 184.375 525.332031 C 183.492188 527.496094 181.40625 528.808594 179.210938 528.808594 Z M 179.210938 528.808594 " fill-opacity="1" fill-rule="nonzero"/><path fill="#f9b132" d="M 212.890625 549.71875 C 212.191406 549.71875 211.476562 549.585938 210.785156 549.300781 C 207.933594 548.136719 206.566406 544.890625 207.726562 542.039062 C 208.113281 541.097656 217.308594 518.910156 234.390625 510.425781 C 237.15625 509.050781 240.503906 510.179688 241.863281 512.941406 C 243.234375 515.695312 242.109375 519.046875 239.347656 520.414062 C 226.074219 527.007812 218.128906 546.0625 218.050781 546.257812 C 217.167969 548.414062 215.089844 549.71875 212.890625 549.71875 Z M 212.890625 549.71875 " fill-opacity="1" fill-rule="nonzero"/><path fill="#ef9d26" d="M 277.640625 428.59375 C 275.839844 428.59375 274.074219 427.726562 272.996094 426.113281 L 267.753906 418.25 C 266.046875 415.6875 266.738281 412.226562 269.300781 410.515625 C 271.855469 408.804688 275.324219 409.496094 277.035156 412.0625 L 282.277344 419.925781 C 283.984375 422.488281 283.292969 425.945312 280.730469 427.660156 C 279.777344 428.289062 278.703125 428.59375 277.640625 428.59375 Z M 277.640625 428.59375 " fill-opacity="1" fill-rule="nonzero"/><path fill="#ef9d26" d="M 337.746094 454.695312 C 334.78125 454.695312 332.308594 452.359375 332.179688 449.363281 L 331.625 436.648438 C 331.488281 433.570312 333.871094 430.964844 336.949219 430.832031 C 339.988281 430.546875 342.632812 433.074219 342.765625 436.15625 L 343.324219 448.871094 C 343.457031 451.949219 341.078125 454.554688 337.996094 454.6875 C 337.914062 454.695312 337.832031 454.695312 337.746094 454.695312 Z M 337.746094 454.695312 " fill-opacity="1" fill-rule="nonzero"/><path fill="#f9b132" d="M 347.566406 472.203125 C 347.507812 469.164062 345.023438 466.757812 341.992188 466.757812 C 341.96875 466.757812 341.945312 466.757812 341.925781 466.757812 C 338.863281 466.796875 336.398438 469.316406 336.414062 472.378906 C 336.417969 473.695312 336 503.851562 289.921875 526.371094 C 287.273438 527.664062 286.007812 530.730469 287.089844 533.46875 C 288.300781 536.53125 291.863281 537.835938 294.816406 536.390625 C 347.683594 510.542969 347.601562 473.804688 347.566406 472.203125 Z M 347.566406 472.203125 " fill-opacity="1" fill-rule="nonzero"/><path fill="#ad6a6a" d="M 208.257812 284.328125 C 207.289062 284.328125 206.296875 284.070312 205.402344 283.535156 C 202.757812 281.957031 201.902344 278.535156 203.480469 275.890625 C 205.835938 271.941406 208.136719 267.882812 210.386719 263.722656 C 211.21875 262.105469 212.105469 260.386719 212.988281 258.632812 C 215.210938 254.175781 217.035156 250.199219 218.550781 246.476562 C 219.238281 244.925781 219.75 243.53125 220.265625 242.136719 C 222.390625 236.738281 224.09375 231.355469 225.378906 226.03125 L 225.722656 224.703125 C 226.863281 219.878906 227.621094 215.296875 228.03125 210.765625 C 228.3125 207.707031 230.992188 205.4375 234.09375 205.722656 C 237.160156 206 239.421875 208.714844 239.140625 211.78125 C 238.679688 216.835938 237.835938 221.925781 236.558594 227.335938 L 236.207031 228.683594 C 234.820312 234.46875 232.957031 240.347656 230.6875 246.105469 C 230.136719 247.617188 229.53125 249.230469 228.8125 250.851562 C 227.253906 254.683594 225.316406 258.910156 222.964844 263.621094 C 222.054688 265.433594 221.15625 267.1875 220.253906 268.925781 C 217.878906 273.332031 215.496094 277.53125 213.054688 281.605469 C 212.003906 283.359375 210.152344 284.328125 208.257812 284.328125 Z M 208.257812 284.328125 " fill-opacity="1" fill-rule="nonzero"/><path fill="#ad6a6a" d="M 205.078125 289.347656 C 204.058594 289.347656 203.027344 289.070312 202.101562 288.484375 C 199.496094 286.832031 198.726562 283.390625 200.371094 280.789062 C 201.410156 279.152344 202.441406 277.523438 203.421875 275.886719 C 205.007812 273.238281 208.429688 272.382812 211.074219 273.96875 C 213.71875 275.546875 214.578125 278.96875 212.992188 281.613281 C 211.960938 283.332031 210.878906 285.042969 209.796875 286.753906 C 208.730469 288.433594 206.925781 289.347656 205.078125 289.347656 Z M 205.078125 289.347656 " fill-opacity="1" fill-rule="nonzero"/><path fill="#ad6a6a" d="M 161.085938 345.113281 C 159.65625 345.113281 158.230469 344.566406 157.144531 343.480469 C 154.960938 341.300781 154.960938 337.773438 157.144531 335.59375 C 157.183594 335.554688 161.296875 331.429688 167.488281 324.367188 C 170.382812 321.078125 174.230469 316.628906 178.40625 311.363281 C 182.453125 306.316406 186.441406 301.035156 190.273438 295.648438 C 190.832031 294.933594 191.242188 294.367188 191.632812 293.804688 C 191.75 293.582031 191.878906 293.363281 192.03125 293.160156 C 194.695312 289.476562 197.429688 285.433594 200.390625 280.820312 C 202.050781 278.222656 205.503906 277.457031 208.089844 279.132812 C 210.683594 280.792969 211.441406 284.238281 209.773438 286.832031 C 206.824219 291.433594 204.082031 295.5 201.40625 299.234375 C 201.332031 299.351562 201.257812 299.476562 201.179688 299.589844 C 200.539062 300.550781 199.902344 301.449219 199.195312 302.339844 C 195.410156 307.679688 191.292969 313.132812 187.128906 318.324219 C 182.816406 323.761719 178.839844 328.34375 175.863281 331.730469 C 169.40625 339.078125 165.199219 343.300781 165.023438 343.472656 C 163.941406 344.566406 162.511719 345.113281 161.085938 345.113281 Z M 161.085938 345.113281 " fill-opacity="1" fill-rule="nonzero"/></svg>