<svg xmlns="http://www.w3.org/2000/svg" xmlns:xlink="http://www.w3.org/1999/xlink" width="1024" zoomAndPan="magnify" viewBox="0 0 768 767.999994" height="1024" preserveAspectRatio="xMidYMid meet" version="1.0"><defs><clipPath id="7cbff4a74a"><path d="M 367 465 L 526 465 L 526 768 L 367 768 Z M 367 465 " clip-rule="nonzero"/></clipPath><clipPath id="7e38d08a50"><path d="M 296.242188 662.546875 C 316.90625 630.960938 339.863281 634.277344 346.761719 615.3125 C 353.652344 596.363281 352.421875 581.640625 367.425781 564.320312 C 382.441406 547 405.855469 551.535156 415.613281 536.605469 C 425.371094 521.671875 413.929688 504.007812 432.296875 486.207031 C 450.664062 468.402344 474.964844 484.675781 482.566406 462.679688 C 490.171875 440.683594 506.34375 421.136719 536.925781 428.683594 C 567.496094 436.242188 585.242188 481.933594 537.308594 521.21875 C 537.308594 521.21875 524.851562 535.195312 525.980469 550.679688 C 527.105469 566.164062 533.902344 605.824219 511.640625 627.34375 C 489.363281 648.875 496.039062 664.128906 496.039062 681.945312 C 496.039062 699.746094 489.457031 753.84375 410.707031 768.269531 L 326.3125 768.269531 C 292.988281 755.164062 278.425781 689.792969 296.242188 662.546875 Z M 296.242188 662.546875 " clip-rule="nonzero"/></clipPath><clipPath id="bbf52d9dad"><path d="M 450 524 L 470 524 L 470 577 L 450 577 Z M 450 524 " clip-rule="nonzero"/></clipPath><clipPath id="2abf6c3a9e"><path d="M 296.242188 662.546875 C 316.90625 630.960938 339.863281 634.277344 346.761719 615.3125 C 353.652344 596.363281 352.421875 581.640625 367.425781 564.320312 C 382.441406 547 405.855469 551.535156 415.613281 536.605469 C 425.371094 521.671875 413.929688 504.007812 432.296875 486.207031 C 450.664062 468.402344 474.964844 484.675781 482.566406 462.679688 C 490.171875 440.683594 506.34375 421.136719 536.925781 428.683594 C 567.496094 436.242188 585.242188 481.933594 537.308594 521.21875 C 537.308594 521.21875 524.851562 535.195312 525.980469 550.679688 C 527.105469 566.164062 533.902344 605.824219 511.640625 627.34375 C 489.363281 648.875 496.039062 664.128906 496.039062 681.945312 C 496.039062 699.746094 489.457031 753.84375 410.707031 768.269531 L 326.3125 768.269531 C 292.988281 755.164062 278.425781 689.792969 296.242188 662.546875 Z M 296.242188 662.546875 " clip-rule="nonzero"/></clipPath><clipPath id="dacbbcbd47"><path d="M 384 585 L 421 585 L 421 672 L 384 672 Z M 384 585 " clip-rule="nonzero"/></clipPath><clipPath id="acea15bec5"><path d="M 296.242188 662.546875 C 316.90625 630.960938 339.863281 634.277344 346.761719 615.3125 C 353.652344 596.363281 352.421875 581.640625 367.425781 564.320312 C 382.441406 547 405.855469 551.535156 415.613281 536.605469 C 425.371094 521.671875 413.929688 504.007812 432.296875 486.207031 C 450.664062 468.402344 474.964844 484.675781 482.566406 462.679688 C 490.171875 440.683594 506.34375 421.136719 536.925781 428.683594 C 567.496094 436.242188 585.242188 481.933594 537.308594 521.21875 C 537.308594 521.21875 524.851562 535.195312 525.980469 550.679688 C 527.105469 566.164062 533.902344 605.824219 511.640625 627.34375 C 489.363281 648.875 496.039062 664.128906 496.039062 681.945312 C 496.039062 699.746094 489.457031 753.84375 410.707031 768.269531 L 326.3125 768.269531 C 292.988281 755.164062 278.425781 689.792969 296.242188 662.546875 Z M 296.242188 662.546875 " clip-rule="nonzero"/></clipPath><clipPath id="2906318317"><path d="M 337 694 L 379 694 L 379 754 L 337 754 Z M 337 694 " clip-rule="nonzero"/></clipPath><clipPath id="323bba181f"><path d="M 296.242188 662.546875 C 316.90625 630.960938 339.863281 634.277344 346.761719 615.3125 C 353.652344 596.363281 352.421875 581.640625 367.425781 564.320312 C 382.441406 547 405.855469 551.535156 415.613281 536.605469 C 425.371094 521.671875 413.929688 504.007812 432.296875 486.207031 C 450.664062 468.402344 474.964844 484.675781 482.566406 462.679688 C 490.171875 440.683594 506.34375 421.136719 536.925781 428.683594 C 567.496094 436.242188 585.242188 481.933594 537.308594 521.21875 C 537.308594 521.21875 524.851562 535.195312 525.980469 550.679688 C 527.105469 566.164062 533.902344 605.824219 511.640625 627.34375 C 489.363281 648.875 496.039062 664.128906 496.039062 681.945312 C 496.039062 699.746094 489.457031 753.84375 410.707031 768.269531 L 326.3125 768.269531 C 292.988281 755.164062 278.425781 689.792969 296.242188 662.546875 Z M 296.242188 662.546875 " clip-rule="nonzero"/></clipPath><clipPath id="c4db77c075"><path d="M 392 692 L 466 692 L 466 722 L 392 722 Z M 392 692 " clip-rule="nonzero"/></clipPath><clipPath id="ed7a807337"><path d="M 296.242188 662.546875 C 316.90625 630.960938 339.863281 634.277344 346.761719 615.3125 C 353.652344 596.363281 352.421875 581.640625 367.425781 564.320312 C 382.441406 547 405.855469 551.535156 415.613281 536.605469 C 425.371094 521.671875 413.929688 504.007812 432.296875 486.207031 C 450.664062 468.402344 474.964844 484.675781 482.566406 462.679688 C 490.171875 440.683594 506.34375 421.136719 536.925781 428.683594 C 567.496094 436.242188 585.242188 481.933594 537.308594 521.21875 C 537.308594 521.21875 524.851562 535.195312 525.980469 550.679688 C 527.105469 566.164062 533.902344 605.824219 511.640625 627.34375 C 489.363281 648.875 496.039062 664.128906 496.039062 681.945312 C 496.039062 699.746094 489.457031 753.84375 410.707031 768.269531 L 326.3125 768.269531 C 292.988281 755.164062 278.425781 689.792969 296.242188 662.546875 Z M 296.242188 662.546875 " clip-rule="nonzero"/></clipPath><clipPath id="0d561ad845"><path d="M 445 589 L 502 589 L 502 619 L 445 619 Z M 445 589 " clip-rule="nonzero"/></clipPath><clipPath id="31b356cb23"><path d="M 296.242188 662.546875 C 316.90625 630.960938 339.863281 634.277344 346.761719 615.3125 C 353.652344 596.363281 352.421875 581.640625 367.425781 564.320312 C 382.441406 547 405.855469 551.535156 415.613281 536.605469 C 425.371094 521.671875 413.929688 504.007812 432.296875 486.207031 C 450.664062 468.402344 474.964844 484.675781 482.566406 462.679688 C 490.171875 440.683594 506.34375 421.136719 536.925781 428.683594 C 567.496094 436.242188 585.242188 481.933594 537.308594 521.21875 C 537.308594 521.21875 524.851562 535.195312 525.980469 550.679688 C 527.105469 566.164062 533.902344 605.824219 511.640625 627.34375 C 489.363281 648.875 496.039062 664.128906 496.039062 681.945312 C 496.039062 699.746094 489.457031 753.84375 410.707031 768.269531 L 326.3125 768.269531 C 292.988281 755.164062 278.425781 689.792969 296.242188 662.546875 Z M 296.242188 662.546875 " clip-rule="nonzero"/></clipPath><clipPath id="2b22b3ee87"><path d="M 254 641.601562 L 265 641.601562 L 265 768 L 254 768 Z M 254 641.601562 " clip-rule="nonzero"/></clipPath><clipPath id="35ba6889f6"><path d="M 91.195312 641.933594 C 91.195312 641.933594 87.078125 726.023438 90.167969 768.28125 L 351.585938 768.28125 C 351.585938 768.28125 340.5 679.375 328.03125 641.933594 Z M 91.195312 641.933594 " clip-rule="nonzero"/></clipPath><clipPath id="9efc5621e3"><path d="M 280 641.601562 L 291 641.601562 L 291 768 L 280 768 Z M 280 641.601562 " clip-rule="nonzero"/></clipPath><clipPath id="6dbca24fc2"><path d="M 91.195312 641.933594 C 91.195312 641.933594 87.078125 726.023438 90.167969 768.28125 L 351.585938 768.28125 C 351.585938 768.28125 340.5 679.375 328.03125 641.933594 Z M 91.195312 641.933594 " clip-rule="nonzero"/></clipPath><clipPath id="90756c2760"><path d="M 228 641.601562 L 238 641.601562 L 238 768 L 228 768 Z M 228 641.601562 " clip-rule="nonzero"/></clipPath><clipPath id="fc8aae7ea1"><path d="M 91.195312 641.933594 C 91.195312 641.933594 87.078125 726.023438 90.167969 768.28125 L 351.585938 768.28125 C 351.585938 768.28125 340.5 679.375 328.03125 641.933594 Z M 91.195312 641.933594 " clip-rule="nonzero"/></clipPath><clipPath id="3acc1347b2"><path d="M 458.1875 233 L 521 233 L 521 256 L 458.1875 256 Z M 458.1875 233 " clip-rule="nonzero"/></clipPath><clipPath id="fd8ec67473"><path d="M 458.722656 237.613281 C 458.730469 251.285156 494.539062 372.28125 518.074219 368.402344 C 541.609375 364.523438 515.929688 243.648438 514.570312 236.28125 C 507.773438 199.515625 458.703125 216.613281 458.722656 237.613281 Z M 458.722656 237.613281 " clip-rule="nonzero"/></clipPath><clipPath id="c998a851b7"><path d="M 463 259 L 495 259 L 495 276 L 463 276 Z M 463 259 " clip-rule="nonzero"/></clipPath><clipPath id="4fabb2bb60"><path d="M 458.722656 237.613281 C 458.730469 251.285156 494.539062 372.28125 518.074219 368.402344 C 541.609375 364.523438 515.929688 243.648438 514.570312 236.28125 C 507.773438 199.515625 458.703125 216.613281 458.722656 237.613281 Z M 458.722656 237.613281 " clip-rule="nonzero"/></clipPath><clipPath id="bc989f07e8"><path d="M 494 273 L 527 273 L 527 278 L 494 278 Z M 494 273 " clip-rule="nonzero"/></clipPath><clipPath id="da60e99590"><path d="M 458.722656 237.613281 C 458.730469 251.285156 494.539062 372.28125 518.074219 368.402344 C 541.609375 364.523438 515.929688 243.648438 514.570312 236.28125 C 507.773438 199.515625 458.703125 216.613281 458.722656 237.613281 Z M 458.722656 237.613281 " clip-rule="nonzero"/></clipPath><clipPath id="b42619560a"><path d="M 475 293 L 506 293 L 506 309 L 475 309 Z M 475 293 " clip-rule="nonzero"/></clipPath><clipPath id="58669fa52a"><path d="M 458.722656 237.613281 C 458.730469 251.285156 494.539062 372.28125 518.074219 368.402344 C 541.609375 364.523438 515.929688 243.648438 514.570312 236.28125 C 507.773438 199.515625 458.703125 216.613281 458.722656 237.613281 Z M 458.722656 237.613281 " clip-rule="nonzero"/></clipPath><clipPath id="f127ad00d0"><path d="M 472 288 L 494 288 L 494 302 L 472 302 Z M 472 288 " clip-rule="nonzero"/></clipPath><clipPath id="3c074e2616"><path d="M 458.722656 237.613281 C 458.730469 251.285156 494.539062 372.28125 518.074219 368.402344 C 541.609375 364.523438 515.929688 243.648438 514.570312 236.28125 C 507.773438 199.515625 458.703125 216.613281 458.722656 237.613281 Z M 458.722656 237.613281 " clip-rule="nonzero"/></clipPath><clipPath id="f286f55690"><path d="M 497 318 L 528 318 L 528 326 L 497 326 Z M 497 318 " clip-rule="nonzero"/></clipPath><clipPath id="428dbda9c5"><path d="M 458.722656 237.613281 C 458.730469 251.285156 494.539062 372.28125 518.074219 368.402344 C 541.609375 364.523438 515.929688 243.648438 514.570312 236.28125 C 507.773438 199.515625 458.703125 216.613281 458.722656 237.613281 Z M 458.722656 237.613281 " clip-rule="nonzero"/></clipPath><clipPath id="9b67283d9d"><path d="M 487 327 L 528 327 L 528 340 L 487 340 Z M 487 327 " clip-rule="nonzero"/></clipPath><clipPath id="cf3369b82d"><path d="M 458.722656 237.613281 C 458.730469 251.285156 494.539062 372.28125 518.074219 368.402344 C 541.609375 364.523438 515.929688 243.648438 514.570312 236.28125 C 507.773438 199.515625 458.703125 216.613281 458.722656 237.613281 Z M 458.722656 237.613281 " clip-rule="nonzero"/></clipPath><clipPath id="ab9858d393"><path d="M 493 338 L 517 338 L 517 351 L 493 351 Z M 493 338 " clip-rule="nonzero"/></clipPath><clipPath id="548c5a10fd"><path d="M 458.722656 237.613281 C 458.730469 251.285156 494.539062 372.28125 518.074219 368.402344 C 541.609375 364.523438 515.929688 243.648438 514.570312 236.28125 C 507.773438 199.515625 458.703125 216.613281 458.722656 237.613281 Z M 458.722656 237.613281 " clip-rule="nonzero"/></clipPath><clipPath id="0fc831e6db"><path d="M 511 349 L 528 349 L 528 355 L 511 355 Z M 511 349 " clip-rule="nonzero"/></clipPath><clipPath id="a3be520c57"><path d="M 458.722656 237.613281 C 458.730469 251.285156 494.539062 372.28125 518.074219 368.402344 C 541.609375 364.523438 515.929688 243.648438 514.570312 236.28125 C 507.773438 199.515625 458.703125 216.613281 458.722656 237.613281 Z M 458.722656 237.613281 " clip-rule="nonzero"/></clipPath><clipPath id="4aa0887061"><path d="M 583 41.5 L 606 41.5 L 606 68 L 583 68 Z M 583 41.5 " clip-rule="nonzero"/></clipPath></defs><path fill="#ed553b" d="M 109.523438 228.109375 C 109.523438 228.109375 117.257812 265.683594 98.820312 283.597656 C 80.378906 301.511719 47.734375 319.425781 51.417969 359.476562 C 55.105469 399.527344 61.429688 412.695312 38.78125 432.191406 C 16.132812 451.6875 -8.679688 460.925781 -0.945312 513.347656 L 311.636719 513.347656 L 296.5625 391.273438 C 296.5625 391.273438 302.09375 369.582031 288.628906 345.753906 C 275.164062 321.925781 267.671875 314.839844 272.0625 276.34375 C 276.453125 237.84375 191.152344 300.351562 109.523438 228.109375 Z M 109.523438 228.109375 " fill-opacity="1" fill-rule="evenodd"/><path fill="#ed553b" d="M 557.710938 735.34375 C 573.257812 736.867188 585.402344 749.972656 585.402344 765.933594 C 585.402344 766.71875 585.371094 767.503906 585.3125 768.28125 L 373.933594 768.28125 C 372.351562 764.574219 371.476562 760.503906 371.476562 756.222656 C 371.476562 739.242188 385.230469 725.480469 402.1875 725.480469 C 409.316406 725.480469 415.875 727.910156 421.078125 731.980469 C 427.726562 723.746094 437.898438 718.476562 449.296875 718.476562 C 453.082031 718.476562 456.726562 719.0625 460.152344 720.128906 C 455.941406 714.871094 453.425781 708.199219 453.425781 700.9375 C 453.425781 683.960938 467.179688 670.207031 484.136719 670.207031 C 501.097656 670.207031 514.863281 683.96875 514.863281 700.9375 C 514.863281 702.960938 514.660156 704.925781 514.289062 706.839844 C 518.164062 705.078125 522.464844 704.089844 526.996094 704.089844 C 543.964844 704.089844 557.710938 717.851562 557.710938 734.820312 C 557.71875 735 557.710938 735.171875 557.710938 735.34375 Z M 557.710938 735.34375 " fill-opacity="1" fill-rule="evenodd"/><path fill="#208076" d="M 296.242188 662.546875 C 316.90625 630.960938 339.863281 634.277344 346.761719 615.3125 C 353.652344 596.363281 352.421875 581.640625 367.425781 564.320312 C 382.441406 547 405.855469 551.535156 415.613281 536.605469 C 425.371094 521.671875 413.929688 504.007812 432.296875 486.207031 C 450.664062 468.402344 474.964844 484.675781 482.566406 462.679688 C 490.171875 440.683594 506.34375 421.136719 536.925781 428.683594 C 567.496094 436.242188 585.242188 481.933594 537.308594 521.21875 C 537.308594 521.21875 524.851562 535.195312 525.980469 550.679688 C 527.105469 566.164062 533.902344 605.824219 511.640625 627.34375 C 489.363281 648.875 496.039062 664.128906 496.039062 681.945312 C 496.039062 699.746094 489.457031 753.84375 410.707031 768.269531 L 326.3125 768.269531 C 292.988281 755.164062 278.425781 689.792969 296.242188 662.546875 Z M 296.242188 662.546875 " fill-opacity="1" fill-rule="evenodd"/><g clip-path="url(#7cbff4a74a)"><g clip-path="url(#7e38d08a50)"><path fill="#208076" d="M 523.855469 465.734375 C 524.136719 465.199219 524.789062 464.988281 525.335938 465.257812 C 525.867188 465.542969 526.078125 466.195312 525.808594 466.738281 L 369.480469 768.773438 C 369.199219 769.308594 368.542969 769.519531 368 769.25 C 367.46875 768.964844 367.253906 768.3125 367.527344 767.765625 Z M 523.855469 465.734375 " fill-opacity="1" fill-rule="nonzero"/></g></g><g clip-path="url(#bbf52d9dad)"><g clip-path="url(#2abf6c3a9e)"><path fill="#208076" d="M 450.523438 525.773438 C 450.332031 525.199219 450.644531 524.582031 451.21875 524.390625 C 451.792969 524.199219 452.40625 524.511719 452.597656 525.085938 L 469.253906 575.273438 C 469.445312 575.847656 469.132812 576.460938 468.558594 576.652344 C 467.984375 576.84375 467.371094 576.535156 467.179688 575.960938 Z M 450.523438 525.773438 " fill-opacity="1" fill-rule="nonzero"/></g></g><g clip-path="url(#dacbbcbd47)"><g clip-path="url(#acea15bec5)"><path fill="#208076" d="M 384.265625 587.191406 C 384.042969 586.628906 384.3125 585.996094 384.878906 585.761719 C 385.441406 585.539062 386.078125 585.8125 386.308594 586.378906 L 420.03125 670.285156 C 420.253906 670.851562 419.980469 671.484375 419.429688 671.71875 C 418.875 671.949219 418.230469 671.667969 418 671.101562 Z M 384.265625 587.191406 " fill-opacity="1" fill-rule="nonzero"/></g></g><g clip-path="url(#2906318317)"><g clip-path="url(#323bba181f)"><path fill="#208076" d="M 338.152344 695.828125 C 337.820312 695.324219 337.953125 694.648438 338.457031 694.304688 C 338.957031 693.972656 339.644531 694.105469 339.976562 694.609375 L 377.828125 751.40625 C 378.160156 751.910156 378.03125 752.59375 377.527344 752.925781 C 377.023438 753.257812 376.339844 753.128906 376.007812 752.625 Z M 338.152344 695.828125 " fill-opacity="1" fill-rule="nonzero"/></g></g><g clip-path="url(#c4db77c075)"><g clip-path="url(#ed7a807337)"><path fill="#208076" d="M 393.679688 721.429688 C 393.117188 721.640625 392.480469 721.359375 392.257812 720.796875 C 392.046875 720.230469 392.328125 719.597656 392.894531 719.375 L 463.765625 692.28125 C 464.332031 692.070312 464.964844 692.351562 465.1875 692.917969 C 465.398438 693.480469 465.117188 694.113281 464.550781 694.335938 Z M 393.679688 721.429688 " fill-opacity="1" fill-rule="nonzero"/></g></g><g clip-path="url(#0d561ad845)"><g clip-path="url(#31b356cb23)"><path fill="#208076" d="M 447.160156 618.234375 C 446.617188 618.507812 445.960938 618.285156 445.691406 617.753906 C 445.417969 617.207031 445.640625 616.554688 446.175781 616.28125 L 499.667969 589.199219 C 500.210938 588.925781 500.863281 589.148438 501.136719 589.683594 C 501.410156 590.226562 501.1875 590.882812 500.652344 591.152344 Z M 447.160156 618.234375 " fill-opacity="1" fill-rule="nonzero"/></g></g><path fill="#20639b" d="M 91.195312 641.933594 C 91.195312 641.933594 87.078125 726.023438 90.167969 768.28125 L 351.585938 768.28125 C 351.585938 768.28125 340.5 679.375 328.03125 641.933594 Z M 91.195312 641.933594 " fill-opacity="1" fill-rule="evenodd"/><g clip-path="url(#2b22b3ee87)"><g clip-path="url(#35ba6889f6)"><path fill="#1a3f5f" d="M 254.875 641.996094 C 254.84375 641.449219 255.257812 640.976562 255.800781 640.945312 C 256.34375 640.917969 256.816406 641.328125 256.847656 641.875 L 264.359375 768.222656 C 264.390625 768.765625 263.976562 769.238281 263.433594 769.269531 C 262.890625 769.300781 262.417969 768.886719 262.386719 768.34375 Z M 254.875 641.996094 " fill-opacity="1" fill-rule="nonzero"/></g></g><g clip-path="url(#9efc5621e3)"><g clip-path="url(#6dbca24fc2)"><path fill="#1a3f5f" d="M 280.863281 641.996094 C 280.835938 641.449219 281.246094 640.976562 281.792969 640.945312 C 282.335938 640.917969 282.808594 641.328125 282.839844 641.875 L 290.351562 768.222656 C 290.378906 768.765625 289.96875 769.238281 289.425781 769.269531 C 288.878906 769.300781 288.40625 768.886719 288.375 768.34375 Z M 280.863281 641.996094 " fill-opacity="1" fill-rule="nonzero"/></g></g><g clip-path="url(#90756c2760)"><g clip-path="url(#fc8aae7ea1)"><path fill="#1a3f5f" d="M 228.410156 641.996094 C 228.378906 641.449219 228.792969 640.976562 229.335938 640.945312 C 229.878906 640.917969 230.351562 641.328125 230.382812 641.875 L 237.894531 768.222656 C 237.925781 768.765625 237.511719 769.238281 236.96875 769.269531 C 236.425781 769.300781 235.953125 768.886719 235.921875 768.34375 Z M 228.410156 641.996094 " fill-opacity="1" fill-rule="nonzero"/></g></g><path fill="#ffffff" d="M 372.511719 395.0625 C 374.03125 379.625 376.882812 354.347656 380.445312 339.816406 C 385.824219 317.875 393.378906 324.472656 393.617188 324.222656 C 393.859375 323.96875 398.050781 324.65625 393.878906 353.421875 C 393.878906 353.421875 436.617188 313.007812 444.613281 312.464844 C 452.609375 311.917969 455.671875 319.433594 452.820312 324.976562 C 452.820312 324.976562 458.066406 321.8125 462.113281 327.042969 C 466.164062 332.273438 462.769531 336.664062 461.621094 337.882812 C 461.621094 337.882812 466.425781 336.007812 469.40625 340.3125 C 473.453125 345.710938 465.691406 350.238281 461.832031 353.691406 C 461.832031 353.691406 466.535156 353.238281 469.183594 357.742188 C 469.183594 357.742188 473.230469 363.738281 463.878906 371.726562 C 463.878906 371.726562 423.75 408.191406 419.207031 412.613281 C 419.214844 412.625 382.582031 441.5 372.511719 395.0625 Z M 372.511719 395.0625 " fill-opacity="1" fill-rule="evenodd"/><path fill="#1a3f5f" d="M 371.535156 394.902344 C 372.300781 387.183594 373.386719 377.015625 374.738281 366.972656 C 376.085938 356.886719 377.699219 346.890625 379.492188 339.585938 C 383.621094 322.730469 389.339844 321.945312 392.238281 322.660156 C 392.914062 322.820312 393.40625 323.050781 393.710938 323.203125 C 394.0625 323.203125 394.625 323.363281 395.121094 324.007812 C 395.453125 324.441406 395.8125 325.167969 396.105469 326.347656 C 396.859375 329.421875 397.214844 336.179688 395.25 350.78125 C 403.878906 342.71875 437.28125 311.96875 444.554688 311.476562 C 446.71875 311.324219 448.570312 311.726562 450.082031 312.503906 C 451.542969 313.257812 452.691406 314.355469 453.484375 315.667969 C 454.28125 316.957031 454.734375 318.449219 454.835938 319.988281 C 454.90625 321.078125 454.804688 322.1875 454.523438 323.273438 C 456.675781 322.75 460.050781 322.769531 462.902344 326.4375 C 464.59375 328.625 465.117188 330.710938 465.035156 332.535156 C 464.964844 334.09375 464.453125 335.445312 463.855469 336.492188 C 465.75 336.441406 468.308594 336.988281 470.222656 339.746094 L 470.230469 339.757812 C 474.117188 345.007812 468.890625 349.21875 464.644531 352.644531 L 464.28125 352.9375 C 466.050781 353.351562 468.390625 354.4375 470.03125 357.199219 C 470.109375 357.320312 474.480469 363.980469 464.53125 372.472656 L 464.511719 372.484375 C 463.140625 373.722656 424.382812 408.945312 419.902344 413.308594 L 419.800781 413.398438 C 419.074219 413.964844 381.867188 442.839844 371.546875 395.253906 C 371.523438 395.144531 371.515625 395.023438 371.535156 394.902344 Z M 376.699219 367.234375 C 375.363281 377.21875 374.273438 387.304688 373.519531 394.992188 C 383.117188 438.832031 417.191406 412.9375 418.574219 411.867188 C 423.183594 407.386719 461.792969 372.300781 463.191406 371.03125 L 463.253906 370.972656 C 471.953125 363.546875 468.390625 358.285156 468.378906 358.277344 L 468.359375 358.234375 C 466.03125 354.277344 461.972656 354.667969 461.964844 354.667969 C 461.660156 354.699219 461.351562 354.589844 461.128906 354.347656 C 460.765625 353.945312 460.796875 353.320312 461.207031 352.957031 C 461.894531 352.34375 462.640625 351.738281 463.425781 351.113281 C 467.019531 348.222656 471.429688 344.65625 468.660156 340.925781 L 468.628906 340.875 C 466.101562 337.230469 462.015625 338.820312 462.003906 338.820312 C 461.660156 338.941406 461.269531 338.882812 460.988281 338.609375 C 460.59375 338.238281 460.574219 337.613281 460.945312 337.207031 C 461.582031 336.535156 462.992188 334.769531 463.09375 332.453125 C 463.152344 331.050781 462.738281 329.421875 461.371094 327.65625 C 457.855469 323.121094 453.375 325.824219 453.363281 325.832031 C 453.082031 326.003906 452.71875 326.023438 452.40625 325.863281 C 451.925781 325.613281 451.734375 325.015625 451.984375 324.535156 C 452.699219 323.144531 453 321.601562 452.902344 320.128906 C 452.820312 318.902344 452.457031 317.722656 451.832031 316.703125 C 451.21875 315.699219 450.34375 314.851562 449.214844 314.265625 C 448.007812 313.652344 446.507812 313.328125 444.722656 313.449219 C 437.183594 313.964844 395.703125 353.109375 394.625 354.117188 C 394.414062 354.328125 394.101562 354.449219 393.78125 354.398438 C 393.234375 354.316406 392.863281 353.824219 392.945312 353.277344 C 395.300781 337.039062 394.976562 329.894531 394.222656 326.8125 C 394.023438 325.996094 393.808594 325.519531 393.617188 325.257812 C 393.40625 325.238281 393.175781 325.128906 392.902344 324.996094 C 392.652344 324.875 392.257812 324.683594 391.804688 324.574219 C 389.589844 324.03125 385.160156 324.90625 381.445312 340.050781 C 379.640625 347.285156 378.039062 357.199219 376.699219 367.234375 Z M 376.699219 367.234375 " fill-opacity="1" fill-rule="nonzero"/><path fill="#1a3f5f" d="M 461.851562 352.390625 C 462.347656 352.007812 463.050781 352.101562 463.433594 352.59375 C 463.816406 353.085938 464.308594 353.238281 463.816406 353.621094 L 436.808594 374.679688 C 436.316406 375.0625 435.609375 374.972656 435.226562 374.476562 C 434.84375 373.984375 434.9375 373.277344 435.429688 372.894531 Z M 461.851562 352.390625 " fill-opacity="1" fill-rule="nonzero"/><path fill="#1a3f5f" d="M 461.933594 336.191406 C 462.4375 335.808594 463.152344 335.917969 463.535156 336.421875 C 463.917969 336.925781 463.816406 337.640625 463.304688 338.023438 L 427.554688 364.957031 C 427.050781 365.339844 426.335938 365.230469 425.953125 364.726562 C 425.570312 364.222656 425.683594 363.503906 426.183594 363.121094 Z M 461.933594 336.191406 " fill-opacity="1" fill-rule="nonzero"/><path fill="#1a3f5f" d="M 452.929688 323.496094 C 453.40625 323.121094 454.089844 323.195312 454.460938 323.667969 C 454.835938 324.140625 454.765625 324.824219 454.289062 325.199219 L 418.480469 353.824219 C 418.007812 354.195312 417.324219 354.125 416.949219 353.652344 C 416.578125 353.179688 416.648438 352.492188 417.121094 352.121094 Z M 452.929688 323.496094 " fill-opacity="1" fill-rule="nonzero"/><path fill="#1a3f5f" d="M 441.402344 380.273438 C 441.785156 380.726562 441.722656 381.410156 441.261719 381.792969 C 440.808594 382.175781 440.121094 382.117188 439.738281 381.652344 L 411.160156 347.457031 C 410.777344 347.003906 410.839844 346.316406 411.300781 345.933594 C 411.753906 345.550781 412.441406 345.613281 412.824219 346.074219 Z M 441.402344 380.273438 " fill-opacity="1" fill-rule="nonzero"/><path fill="#f6d55c" d="M 261.589844 345.519531 C 261.589844 345.519531 318.820312 376.511719 349.421875 436.199219 L 364.648438 383.816406 L 435.085938 412.390625 C 435.085938 412.390625 412.238281 594.308594 324.667969 598.117188 L 304.679688 451.445312 Z M 261.589844 345.519531 " fill-opacity="1" fill-rule="evenodd"/><path fill="#1a3f5f" d="M 283.242188 223.074219 C 283.050781 229.449219 283.128906 235.988281 283.210938 242.488281 C 283.351562 254.335938 283.492188 266.046875 282.03125 276.441406 C 278.578125 301.097656 266.394531 318.398438 225.347656 313.117188 L 224.824219 330.679688 L 221.835938 332.644531 L 222.480469 311.242188 C 222.589844 310.4375 223.335938 309.875 224.140625 309.984375 C 264.128906 315.597656 275.859375 299.34375 279.132812 276.03125 C 280.5625 265.8125 280.421875 254.226562 280.28125 242.507812 C 280.199219 236 280.121094 229.441406 280.3125 223.050781 C 279.222656 214.972656 276.140625 200.402344 271.226562 190.136719 C 269.335938 186.164062 267.179688 182.871094 264.792969 180.917969 C 262.65625 179.171875 260.3125 178.558594 257.773438 179.636719 C 256.082031 180.363281 254.269531 181.804688 252.324219 184.101562 C 235.851562 203.675781 198.402344 214.347656 192.066406 216.039062 C 190.707031 223.527344 188.613281 229.570312 186.277344 234.398438 C 183.828125 239.464844 181.121094 243.203125 178.714844 245.882812 C 178.53125 246.085938 178.292969 246.238281 178.007812 246.316406 C 177.222656 246.527344 176.417969 246.074219 176.207031 245.289062 L 176.046875 244.726562 C 173.929688 237.410156 169.933594 231.414062 165.171875 227.625 C 160.546875 223.949219 155.230469 222.386719 150.308594 223.808594 C 145.382812 225.230469 141.71875 229.390625 139.761719 234.972656 C 137.757812 240.714844 137.566406 247.9375 139.683594 255.253906 C 141.40625 261.207031 144.367188 266.285156 147.980469 270.015625 C 151.605469 273.761719 155.875 276.140625 160.125 276.613281 C 160.253906 276.632812 160.375 276.664062 160.507812 276.714844 C 161.261719 277.015625 161.625 277.863281 161.332031 278.621094 L 160.910156 279.675781 L 160.800781 281.027344 L 159.972656 278.085938 L 158 279.273438 L 158 279.253906 C 153.679688 278.316406 149.480469 275.796875 145.886719 272.082031 C 141.957031 268.019531 138.734375 262.507812 136.875 256.089844 C 134.585938 248.171875 134.796875 240.3125 137.003906 234.023438 C 139.261719 227.566406 143.609375 222.710938 149.5 221.007812 C 155.402344 219.304688 161.65625 221.085938 167.011719 225.351562 C 171.765625 229.136719 175.824219 234.902344 178.230469 241.902344 C 180.011719 239.625 181.894531 236.734375 183.636719 233.136719 C 185.953125 228.332031 188.039062 222.246094 189.339844 214.621094 C 189.4375 214.023438 189.882812 213.582031 190.425781 213.441406 C 190.546875 213.410156 232.71875 202.859375 250.082031 182.226562 C 252.335938 179.546875 254.519531 177.84375 256.617188 176.9375 C 260.3125 175.355469 263.664062 176.191406 266.65625 178.640625 C 269.394531 180.886719 271.800781 184.535156 273.875 188.867188 C 278.960938 199.507812 282.132812 214.527344 283.242188 222.78125 C 283.242188 222.890625 283.242188 222.980469 283.242188 223.074219 Z M 283.242188 223.074219 " fill-opacity="1" fill-rule="nonzero"/><path fill="#ffffff" d="M 281.769531 222.992188 C 280.429688 268.070312 292.425781 321.078125 223.929688 311.457031 L 224.824219 330.691406 L 233.152344 335.648438 L 255.769531 372.867188 L 222.15625 386.066406 L 163.398438 385.613281 L 154.667969 336.152344 L 159.460938 279.386719 L 159.964844 278.117188 C 150.871094 277.085938 141.898438 268.230469 138.273438 255.699219 C 133.871094 240.453125 139.078125 225.5625 149.894531 222.4375 C 160.707031 219.316406 173.054688 229.128906 177.457031 244.371094 L 177.617188 244.9375 C 182.277344 239.738281 188.121094 230.4375 190.777344 214.890625 C 190.777344 214.890625 233.515625 204.203125 251.199219 183.195312 C 268.882812 162.164062 279.566406 206.398438 281.769531 222.992188 Z M 281.769531 222.992188 " fill-opacity="1" fill-rule="evenodd"/><path fill="#1a3f5f" d="M 223.929688 311.457031 C 223.929688 311.457031 199.941406 306.832031 183.144531 295.789062 C 183.144531 295.789062 201.070312 331.578125 224.824219 330.691406 L 226.195312 311.757812 Z M 223.929688 311.457031 " fill-opacity="1" fill-rule="evenodd"/><path fill="#1a3f5f" d="M 271.449219 224.917969 C 267.984375 224.917969 265.164062 228.523438 265.164062 232.96875 C 265.164062 237.410156 267.976562 241.015625 271.449219 241.015625 C 274.921875 241.015625 277.734375 237.410156 277.734375 232.96875 C 277.734375 228.523438 274.921875 224.917969 271.449219 224.917969 Z M 271.449219 224.917969 " fill-opacity="1" fill-rule="evenodd"/><path fill="#1a3f5f" d="M 228.609375 224.917969 C 225.136719 224.917969 222.328125 228.523438 222.328125 232.96875 C 222.328125 237.410156 225.136719 241.015625 228.609375 241.015625 C 232.074219 241.015625 234.894531 237.410156 234.894531 232.96875 C 234.886719 228.523438 232.074219 224.917969 228.609375 224.917969 Z M 228.609375 224.917969 " fill-opacity="1" fill-rule="evenodd"/><path fill="#1a3f5f" d="M 250.9375 234.78125 C 250.535156 234.238281 250.644531 233.460938 251.1875 233.058594 C 251.730469 232.65625 252.507812 232.765625 252.910156 233.308594 C 252.960938 233.371094 269.738281 255.847656 262.800781 259.363281 C 256.765625 262.429688 247.554688 259.859375 247.523438 259.859375 C 246.867188 259.667969 246.496094 258.972656 246.695312 258.328125 C 246.886719 257.671875 247.582031 257.300781 248.226562 257.5 C 248.246094 257.511719 256.496094 259.808594 261.691406 257.179688 C 265.980469 254.980469 250.976562 234.832031 250.9375 234.78125 Z M 250.9375 234.78125 " fill-opacity="1" fill-rule="nonzero"/><path fill="#1a3f5f" d="M 280.914062 217.78125 C 281.410156 218.246094 281.429688 219.03125 280.957031 219.527344 C 280.492188 220.019531 279.707031 220.039062 279.214844 219.566406 C 279.191406 219.546875 271.507812 212.070312 264.519531 218.667969 C 264.027344 219.132812 263.242188 219.113281 262.777344 218.621094 C 262.316406 218.125 262.335938 217.339844 262.828125 216.875 C 271.550781 208.65625 280.882812 217.761719 280.914062 217.78125 Z M 280.914062 217.78125 " fill-opacity="1" fill-rule="nonzero"/><path fill="#1a3f5f" d="M 237.191406 217.78125 C 237.683594 218.246094 237.703125 219.03125 237.230469 219.527344 C 236.769531 220.019531 235.984375 220.039062 235.488281 219.566406 C 235.46875 219.546875 227.785156 212.070312 220.796875 218.667969 C 220.304688 219.132812 219.519531 219.113281 219.054688 218.621094 C 218.589844 218.125 218.613281 217.339844 219.105469 216.875 C 227.824219 208.65625 237.171875 217.761719 237.191406 217.78125 Z M 237.191406 217.78125 " fill-opacity="1" fill-rule="nonzero"/><path fill="#1a3f5f" d="M 266.113281 272.472656 L 233.503906 272.472656 C 233.503906 272.472656 253.453125 299.949219 266.113281 272.472656 Z M 266.113281 272.472656 " fill-opacity="1" fill-rule="evenodd"/><path fill="#208076" d="M 153.316406 379.699219 C 153.316406 379.699219 89.472656 360.03125 78.386719 402.066406 C 67.308594 444.101562 67.160156 563.738281 84.257812 641.933594 L 335.816406 641.933594 C 308.226562 459.394531 312.957031 427.554688 275.367188 357.863281 C 275.367188 357.863281 295.898438 373.339844 263.382812 365.53125 C 235.226562 378.136719 197.183594 381.613281 153.316406 379.699219 Z M 153.316406 379.699219 " fill-opacity="1" fill-rule="evenodd"/><path fill="#f6d55c" d="M 154.867188 333.78125 C 154.867188 333.78125 216.425781 383.304688 227.542969 768.269531 L 80.671875 768.269531 C 80.671875 768.269531 57.28125 511.425781 76.664062 407.828125 C 83.390625 371.527344 124.46875 345.773438 154.867188 333.78125 Z M 154.867188 333.78125 " fill-opacity="1" fill-rule="evenodd"/><path fill="#f6d55c" d="M 224.824219 330.691406 C 224.824219 330.691406 275.980469 339.113281 295.375 385.945312 C 314.769531 432.773438 343.570312 705.347656 351.585938 768.28125 L 295.917969 768.28125 C 295.917969 768.28125 287.078125 382.761719 224.824219 330.691406 Z M 224.824219 330.691406 " fill-opacity="1" fill-rule="evenodd"/><path fill="#1a3f5f" d="M 280.109375 361.085938 C 280.160156 361.128906 298.183594 375.335938 307.339844 429.289062 L 305.386719 429.613281 C 296.363281 376.414062 278.910156 362.667969 278.859375 362.628906 Z M 280.109375 361.085938 " fill-opacity="1" fill-rule="nonzero"/><path fill="#20639b" d="M 240.371094 413.277344 L 378.957031 413.277344 L 359.855469 633.601562 L 221.261719 633.601562 Z M 240.371094 413.277344 " fill-opacity="1" fill-rule="evenodd"/><path fill="#1a3f5f" d="M 235.238281 413.277344 L 240.371094 413.277344 L 221.261719 633.601562 L 216.132812 633.601562 Z M 235.238281 413.277344 " fill-opacity="1" fill-rule="evenodd"/><path fill="#ed553b" d="M 153.347656 153.984375 C 153.347656 153.984375 94.78125 165.238281 109.511719 228.109375 C 121.164062 277.824219 147.125 296.957031 157.488281 302.789062 L 159.460938 279.375 L 159.964844 278.105469 C 150.871094 277.078125 141.898438 268.222656 138.273438 255.6875 C 133.871094 240.441406 139.078125 225.550781 149.894531 222.429688 C 160.710938 219.304688 173.054688 229.117188 177.457031 244.363281 L 177.617188 244.925781 C 182.277344 239.726562 188.121094 230.429688 190.777344 214.882812 C 190.777344 214.882812 226.585938 205.925781 246.214844 188.28125 L 241.007812 210.953125 C 256.042969 211.828125 261.8125 184.019531 261.8125 184.019531 L 262.164062 210.609375 C 272.234375 207.816406 270.855469 192.5625 269.0625 183.484375 C 276.113281 193.328125 280.460938 213.085938 281.78125 222.992188 C 281.78125 222.992188 297.1875 215.132812 284.871094 179.71875 C 272.558594 144.300781 214.070312 94.507812 153.347656 153.984375 Z M 153.347656 153.984375 " fill-opacity="1" fill-rule="evenodd"/><path fill="#ffffff" d="M 287.902344 578.136719 L 306.402344 570.941406 C 306.402344 570.941406 353.429688 572.269531 361.71875 556.644531 C 369.996094 541.015625 371.757812 525.691406 371.757812 525.691406 C 371.757812 525.691406 377.375 512.421875 376.015625 506.992188 C 374.65625 501.5625 369.390625 495.9375 362.050781 495.578125 C 354.707031 495.214844 350.882812 495.777344 350.882812 495.777344 C 350.882812 495.777344 346.5 484.503906 338.625 482.921875 C 330.75 481.339844 289.414062 490.5 273.957031 514.335938 C 273.957031 514.335938 269.496094 515.386719 262.125 517.097656 Z M 287.902344 578.136719 " fill-opacity="1" fill-rule="evenodd"/><path fill="#1a3f5f" d="M 288.4375 576.867188 L 306.039062 570.015625 C 306.179688 569.964844 306.320312 569.945312 306.460938 569.953125 C 307.972656 569.996094 352.964844 571.03125 360.832031 556.179688 C 369.027344 540.714844 370.757812 525.621094 370.757812 525.582031 C 370.769531 525.46875 370.800781 525.371094 370.851562 525.277344 C 371.183594 524.492188 376.289062 512.179688 375.050781 507.234375 C 374.375 504.535156 372.664062 501.78125 370.164062 499.746094 C 367.980469 497.964844 365.199219 496.734375 362 496.574219 C 354.757812 496.222656 351.003906 496.765625 350.992188 496.765625 C 350.519531 496.824219 350.074219 496.535156 349.933594 496.101562 C 349.632812 495.355469 345.503906 485.320312 338.425781 483.898438 C 333.761719 482.960938 316.914062 485.964844 300.914062 493.734375 C 290.613281 498.730469 280.722656 505.710938 274.78125 514.882812 C 274.640625 515.101562 274.429688 515.242188 274.199219 515.304688 L 263.492188 517.804688 Z M 306.582031 571.929688 L 288.265625 579.050781 C 287.773438 579.242188 287.207031 579.011719 286.996094 578.519531 L 261.238281 517.53125 C 261.207031 517.460938 261.175781 517.390625 261.15625 517.308594 C 261.035156 516.773438 261.367188 516.242188 261.902344 516.121094 L 273.351562 513.449219 C 279.546875 504.101562 289.605469 497.007812 300.058594 491.929688 C 316.433594 483.96875 333.902344 480.945312 338.816406 481.933594 C 345.988281 483.375 350.359375 492.128906 351.507812 494.691406 C 352.957031 494.546875 356.53125 494.296875 362.097656 494.570312 C 365.765625 494.75 368.9375 496.152344 371.425781 498.1875 C 374.253906 500.503906 376.207031 503.636719 376.984375 506.730469 C 378.34375 512.171875 373.296875 524.5625 372.734375 525.925781 C 372.53125 527.496094 370.519531 542.136719 362.601562 557.078125 C 354.324219 572.695312 309.875 572 306.582031 571.929688 Z M 306.582031 571.929688 " fill-opacity="1" fill-rule="nonzero"/><path fill="#1a3f5f" d="M 351.152344 496.976562 C 351.816406 496.824219 352.242188 496.160156 352.089844 495.496094 C 351.9375 494.832031 351.285156 494.40625 350.609375 494.558594 L 326.601562 499.988281 C 325.9375 500.140625 325.515625 500.796875 325.667969 501.46875 C 325.816406 502.136719 326.480469 502.558594 327.144531 502.40625 Z M 351.152344 496.976562 " fill-opacity="1" fill-rule="nonzero"/><path fill="#f6d55c" d="M 107.910156 379.546875 C 107.910156 379.546875 142.019531 366.910156 157.597656 404.402344 C 173.175781 441.894531 196.328125 525.722656 196.328125 525.722656 L 280.53125 502.546875 L 305.746094 588.867188 C 305.746094 588.867188 179.105469 654.710938 130.265625 612.058594 C 81.4375 569.410156 47.089844 391.34375 107.910156 379.546875 Z M 107.910156 379.546875 " fill-opacity="1" fill-rule="evenodd"/><path fill="#1a3f5f" d="M 197.285156 525.460938 C 197.425781 525.984375 197.113281 526.527344 196.578125 526.667969 C 196.054688 526.808594 195.511719 526.5 195.371094 525.964844 C 190.003906 505.996094 184.121094 485.933594 177.6875 465.773438 C 171.253906 445.613281 164.253906 425.257812 156.660156 404.734375 L 156.640625 404.683594 C 156.328125 403.777344 147.347656 377.914062 119.945312 378.488281 C 119.402344 378.5 118.949219 378.066406 118.9375 377.519531 C 118.929688 376.976562 119.363281 376.523438 119.90625 376.511719 C 148.816406 375.910156 158.230469 403.222656 158.515625 404.050781 C 166.085938 424.535156 173.105469 444.90625 179.558594 465.167969 C 186.046875 485.449219 191.9375 505.542969 197.285156 525.460938 Z M 197.285156 525.460938 " fill-opacity="1" fill-rule="nonzero"/><path fill="#1a3f5f" d="M 305.304688 587.988281 C 305.789062 587.746094 306.382812 587.9375 306.632812 588.433594 C 306.886719 588.925781 306.683594 589.511719 306.191406 589.761719 C 228.398438 628.886719 172.773438 635.96875 135.382812 612.996094 C 98.003906 590.023438 79.019531 537.078125 74.5 456.140625 C 74.46875 455.597656 74.890625 455.132812 75.4375 455.101562 C 75.980469 455.074219 76.441406 455.496094 76.472656 456.039062 C 80.953125 536.300781 99.644531 588.714844 136.410156 611.3125 C 173.1875 633.894531 228.1875 626.78125 305.304688 587.988281 Z M 305.304688 587.988281 " fill-opacity="1" fill-rule="nonzero"/><path fill="#1a3f5f" d="M 154.0625 649.5 L 202.207031 649.5 C 202.75 649.5 203.195312 649.945312 203.195312 650.488281 L 203.195312 665.460938 C 203.195312 666.003906 202.75 666.449219 202.207031 666.449219 L 154.0625 666.449219 C 153.519531 666.449219 153.074219 666.003906 153.074219 665.460938 L 153.074219 650.488281 C 153.074219 649.945312 153.519531 649.5 154.0625 649.5 Z M 201.210938 651.484375 L 155.050781 651.484375 L 155.050781 664.472656 L 201.210938 664.472656 Z M 201.210938 651.484375 " fill-opacity="1" fill-rule="nonzero"/><path fill="#1a3f5f" d="M 304.609375 649.5 L 331.808594 649.5 C 332.351562 649.5 332.796875 649.945312 332.796875 650.488281 L 332.796875 665.460938 C 332.796875 666.003906 332.351562 666.449219 331.808594 666.449219 L 304.609375 666.449219 C 304.066406 666.449219 303.621094 666.003906 303.621094 665.460938 L 303.621094 650.488281 C 303.621094 649.945312 304.066406 649.5 304.609375 649.5 Z M 330.820312 651.484375 L 305.605469 651.484375 L 305.605469 664.472656 L 330.820312 664.472656 Z M 330.820312 651.484375 " fill-opacity="1" fill-rule="nonzero"/><path fill="#208076" d="M 477.210938 211.195312 C 470.351562 198.609375 460.3125 189.492188 441.5 193.320312 C 416.09375 198.488281 428.785156 179.476562 454.582031 182.820312 C 466.0625 184.3125 473.445312 191.273438 478.277344 200.210938 C 478.175781 190.054688 481.257812 180.382812 490.574219 173.511719 C 511.519531 158.066406 531.828125 168.542969 507.097656 176.351562 C 483.421875 183.820312 483.082031 203.113281 485.519531 222.144531 C 486.464844 227.082031 487.070312 231.859375 487.53125 236.050781 C 477.753906 221.28125 466.988281 201.683594 450.121094 212.25 C 436.003906 221.097656 439.316406 204.109375 455.609375 201.703125 C 465.40625 200.585938 472.234375 204.554688 477.210938 211.195312 Z M 477.210938 211.195312 " fill-opacity="1" fill-rule="evenodd"/><path fill="#ed553b" d="M 458.722656 237.613281 C 458.730469 251.285156 494.539062 372.28125 518.074219 368.402344 C 541.609375 364.523438 515.929688 243.648438 514.570312 236.28125 C 507.773438 199.515625 458.703125 216.613281 458.722656 237.613281 Z M 458.722656 237.613281 " fill-opacity="1" fill-rule="evenodd"/><g clip-path="url(#3acc1347b2)"><g clip-path="url(#fd8ec67473)"><path fill="#f6d55c" d="M 457.5625 254.820312 C 457.351562 255.082031 456.960938 255.125 456.699219 254.902344 C 456.4375 254.691406 456.394531 254.296875 456.617188 254.035156 C 456.699219 253.945312 483.402344 220.777344 520.28125 239.34375 C 520.582031 239.496094 520.703125 239.867188 520.550781 240.171875 C 520.402344 240.472656 520.027344 240.59375 519.726562 240.441406 C 483.734375 222.316406 457.644531 254.71875 457.5625 254.820312 Z M 457.5625 254.820312 " fill-opacity="1" fill-rule="nonzero"/></g></g><g clip-path="url(#c998a851b7)"><g clip-path="url(#4fabb2bb60)"><path fill="#f6d55c" d="M 464.339844 275.164062 C 464.117188 275.425781 463.738281 275.457031 463.472656 275.234375 C 463.210938 275.011719 463.183594 274.628906 463.402344 274.367188 C 463.425781 274.335938 471.945312 264.140625 493.472656 259.03125 C 493.804688 258.953125 494.136719 259.152344 494.207031 259.484375 C 494.289062 259.816406 494.085938 260.152344 493.753906 260.222656 C 472.628906 265.238281 464.371094 275.132812 464.339844 275.164062 Z M 464.339844 275.164062 " fill-opacity="1" fill-rule="nonzero"/></g></g><g clip-path="url(#bc989f07e8)"><g clip-path="url(#da60e99590)"><path fill="#f6d55c" d="M 495.40625 277.945312 C 495.09375 278.074219 494.730469 277.933594 494.601562 277.621094 C 494.46875 277.308594 494.609375 276.945312 494.921875 276.816406 C 494.964844 276.796875 510.441406 269.933594 525.847656 275.476562 C 526.171875 275.585938 526.332031 275.949219 526.222656 276.261719 C 526.109375 276.585938 525.746094 276.746094 525.433594 276.632812 C 510.480469 271.265625 495.457031 277.925781 495.40625 277.945312 Z M 495.40625 277.945312 " fill-opacity="1" fill-rule="nonzero"/></g></g><g clip-path="url(#b42619560a)"><g clip-path="url(#58669fa52a)"><path fill="#f6d55c" d="M 476.644531 308.523438 C 476.40625 308.765625 476.023438 308.765625 475.78125 308.535156 C 475.539062 308.292969 475.539062 307.910156 475.769531 307.667969 C 475.800781 307.636719 487.441406 295.578125 504.800781 293.277344 C 505.132812 293.230469 505.445312 293.472656 505.496094 293.804688 C 505.546875 294.136719 505.304688 294.449219 504.972656 294.5 C 488.035156 296.734375 476.6875 308.492188 476.644531 308.523438 Z M 476.644531 308.523438 " fill-opacity="1" fill-rule="nonzero"/></g></g><g clip-path="url(#f127ad00d0)"><g clip-path="url(#3c074e2616)"><path fill="#f6d55c" d="M 473.203125 300.835938 C 473 301.109375 472.617188 301.167969 472.347656 300.96875 C 472.074219 300.765625 472.015625 300.382812 472.214844 300.109375 C 472.234375 300.089844 477.824219 292.382812 492.667969 288.101562 C 492.988281 288.007812 493.332031 288.191406 493.433594 288.523438 C 493.523438 288.847656 493.34375 289.1875 493.011719 289.289062 C 478.558594 293.449219 473.222656 300.816406 473.203125 300.835938 Z M 473.203125 300.835938 " fill-opacity="1" fill-rule="nonzero"/></g></g><g clip-path="url(#f286f55690)"><g clip-path="url(#428dbda9c5)"><path fill="#f6d55c" d="M 498.449219 325.925781 C 498.144531 326.085938 497.773438 325.964844 497.621094 325.660156 C 497.460938 325.359375 497.582031 324.988281 497.882812 324.835938 C 497.933594 324.804688 515.769531 315.34375 532.695312 319.164062 C 533.027344 319.234375 533.238281 319.566406 533.160156 319.898438 C 533.089844 320.230469 532.757812 320.441406 532.425781 320.363281 C 515.9375 316.644531 498.5 325.902344 498.449219 325.925781 Z M 498.449219 325.925781 " fill-opacity="1" fill-rule="nonzero"/></g></g><g clip-path="url(#9b67283d9d)"><g clip-path="url(#cf3369b82d)"><path fill="#f6d55c" d="M 488.449219 339.433594 C 488.167969 339.617188 487.785156 339.546875 487.59375 339.253906 C 487.410156 338.972656 487.480469 338.589844 487.773438 338.398438 C 487.84375 338.355469 511.125 322.859375 533.410156 328.605469 C 533.742188 328.683594 533.933594 329.027344 533.855469 329.351562 C 533.773438 329.683594 533.429688 329.882812 533.109375 329.792969 C 511.359375 324.191406 488.519531 339.386719 488.449219 339.433594 Z M 488.449219 339.433594 " fill-opacity="1" fill-rule="nonzero"/></g></g><g clip-path="url(#ab9858d393)"><g clip-path="url(#548c5a10fd)"><path fill="#f6d55c" d="M 494.589844 350.035156 C 494.359375 350.277344 493.964844 350.285156 493.726562 350.042969 C 493.484375 349.8125 493.472656 349.421875 493.714844 349.179688 C 493.734375 349.160156 500.5625 342.054688 515.65625 338.8125 C 515.988281 338.738281 516.3125 338.953125 516.390625 339.285156 C 516.464844 339.617188 516.25 339.9375 515.917969 340.019531 C 501.1875 343.171875 494.609375 350.015625 494.589844 350.035156 Z M 494.589844 350.035156 " fill-opacity="1" fill-rule="nonzero"/></g></g><g clip-path="url(#0fc831e6db)"><g clip-path="url(#a3be520c57)"><path fill="#f6d55c" d="M 512.625 353.984375 C 512.304688 354.105469 511.953125 353.945312 511.832031 353.621094 C 511.710938 353.300781 511.871094 352.945312 512.191406 352.824219 C 512.222656 352.816406 521.042969 349.429688 531.425781 349.390625 C 531.769531 349.390625 532.042969 349.660156 532.050781 350.003906 C 532.050781 350.347656 531.78125 350.621094 531.4375 350.628906 C 521.265625 350.667969 512.648438 353.972656 512.625 353.984375 Z M 512.625 353.984375 " fill-opacity="1" fill-rule="nonzero"/></g></g><path fill="#f6d55c" d="M 576.953125 365.703125 C 576.953125 365.703125 577.285156 387.011719 604.222656 388.121094 L 638.53125 339.3125 L 658.851562 339.828125 L 660.285156 329.097656 C 660.285156 329.097656 637.96875 325.925781 639.890625 322.257812 C 641.816406 318.589844 652.035156 304.210938 652.035156 304.210938 L 641.007812 295.285156 C 641.007812 295.285156 631.433594 312.492188 628.53125 311.132812 C 625.621094 309.773438 622.730469 293.53125 622.730469 293.53125 L 608.683594 301.953125 C 608.683594 301.953125 615.570312 313.308594 611.464844 320.464844 C 607.375 327.585938 576.953125 365.703125 576.953125 365.703125 Z M 576.953125 365.703125 " fill-opacity="1" fill-rule="evenodd"/><path fill="#208076" d="M 707.761719 262.832031 C 710.390625 263.425781 712.980469 264.394531 715.457031 265.773438 C 729.363281 273.511719 734.367188 291.074219 726.625 304.976562 C 724.730469 308.382812 722.253906 311.253906 719.382812 313.53125 C 723.796875 318.769531 724.761719 326.386719 721.238281 332.726562 C 717.359375 339.699219 709.285156 342.871094 701.921875 340.847656 C 701.902344 344.523438 700.976562 348.242188 699.0625 351.675781 C 692.992188 362.597656 679.214844 366.527344 668.300781 360.453125 C 658.308594 354.890625 654.179688 342.890625 658.1875 332.523438 C 651.320312 326.648438 648.613281 317.167969 651.320312 308.554688 C 647.804688 308.050781 644.324219 306.902344 641.03125 305.078125 C 636.277344 302.4375 632.53125 298.691406 629.921875 294.335938 C 629.417969 295.636719 628.824219 296.917969 628.128906 298.175781 C 620.082031 312.644531 601.835938 317.851562 587.375 309.804688 C 572.914062 301.753906 567.710938 283.496094 575.753906 269.027344 C 580.992188 259.597656 590.570312 254.105469 600.597656 253.652344 C 599.046875 246.941406 599.882812 239.648438 603.5 233.160156 C 611.230469 219.242188 628.773438 214.238281 642.679688 221.984375 C 646.417969 224.058594 649.507812 226.851562 651.886719 230.085938 C 660.925781 215.433594 679.980469 210.355469 695.175781 218.8125 C 710.804688 227.496094 716.421875 247.203125 707.761719 262.832031 Z M 707.761719 262.832031 " fill-opacity="1" fill-rule="evenodd"/><path fill="#208076" d="M 601.503906 254.054688 C 601.042969 254.035156 600.679688 253.652344 600.699219 253.1875 C 600.71875 252.726562 601.101562 252.363281 601.566406 252.382812 C 601.613281 252.382812 620.4375 252.867188 628.855469 270.621094 C 629.054688 271.03125 628.875 271.535156 628.460938 271.738281 C 628.050781 271.9375 627.546875 271.757812 627.34375 271.34375 C 619.367188 254.507812 601.554688 254.054688 601.503906 254.054688 Z M 601.503906 254.054688 " fill-opacity="1" fill-rule="nonzero"/><path fill="#208076" d="M 707.140625 262.277344 C 707.441406 261.933594 707.976562 261.902344 708.316406 262.207031 C 708.660156 262.507812 708.691406 263.042969 708.386719 263.386719 C 708.347656 263.433594 694.238281 279.507812 673.375 270.257812 C 672.953125 270.066406 672.761719 269.570312 672.953125 269.148438 C 673.144531 268.726562 673.636719 268.535156 674.058594 268.726562 C 693.796875 277.492188 707.097656 262.328125 707.140625 262.277344 Z M 707.140625 262.277344 " fill-opacity="1" fill-rule="nonzero"/><path fill="#208076" d="M 652.136719 308.785156 C 652.003906 309.230469 651.542969 309.492188 651.097656 309.359375 C 650.65625 309.230469 650.394531 308.765625 650.523438 308.320312 C 650.535156 308.28125 654.332031 293.972656 670.089844 296.574219 C 670.542969 296.644531 670.855469 297.078125 670.777344 297.542969 C 670.707031 297.996094 670.273438 298.308594 669.808594 298.226562 C 655.558594 295.878906 652.148438 308.753906 652.136719 308.785156 Z M 652.136719 308.785156 " fill-opacity="1" fill-rule="nonzero"/><path fill="#ed553b" d="M 597.40625 61.410156 C 631.734375 52.203125 666.496094 70.589844 675.035156 102.476562 C 683.574219 134.367188 662.667969 167.675781 628.332031 176.875 C 594.003906 186.085938 559.242188 167.699219 550.710938 135.808594 C 542.171875 103.917969 563.078125 70.609375 597.40625 61.410156 Z M 597.40625 61.410156 " fill-opacity="1" fill-rule="evenodd"/><path fill="#208076" d="M 597.40625 61.410156 C 597.40625 61.410156 569.550781 65.160156 554.488281 87.546875 C 539.421875 109.933594 572.511719 89.039062 579.332031 82.789062 C 579.332031 82.789062 573.75 111.273438 580.285156 116.664062 C 586.824219 122.054688 598.394531 90.398438 599.328125 79.949219 C 599.328125 79.949219 611.402344 115.898438 619.75 111.0625 C 628.089844 106.226562 610.648438 71.476562 610.648438 71.476562 C 610.648438 71.476562 639.859375 94.367188 643.585938 86.257812 C 647.3125 78.144531 626.992188 68.804688 626.992188 68.804688 C 626.992188 68.804688 653.847656 77.472656 650.988281 68.472656 C 648.140625 59.464844 617.625 50.570312 597.40625 61.410156 Z M 597.40625 61.410156 " fill-opacity="1" fill-rule="evenodd"/><g clip-path="url(#4aa0887061)"><path fill="#208076" d="M 593.769531 67.335938 C 593.769531 67.335938 580.921875 50.941406 583.820312 47.808594 C 586.722656 44.675781 600.15625 41.492188 600.15625 41.492188 L 605.695312 63.726562 Z M 593.769531 67.335938 " fill-opacity="1" fill-rule="evenodd"/></g><path fill="#1a3f5f" d="M 445.742188 61.882812 C 445.742188 61.882812 462.136719 72.816406 459.132812 93.046875 C 456.132812 113.28125 438.570312 124.222656 434.535156 146.691406 C 430.503906 169.160156 397.363281 238.429688 331.125 176.554688 C 331.125 176.554688 385.433594 186.015625 386.839844 183.40625 C 388.242188 180.796875 412.871094 150.550781 413.277344 148.542969 C 413.679688 146.539062 429.296875 106.46875 430.292969 104.261719 C 431.300781 102.066406 445.742188 61.882812 445.742188 61.882812 Z M 445.742188 61.882812 " fill-opacity="1" fill-rule="evenodd"/><path fill="#f6d55c" d="M 327.367188 106.851562 C 355.886719 77.945312 368.230469 86.507812 389.902344 70.699219 C 406.066406 59.675781 428.109375 42.035156 445.742188 61.882812 C 465.578125 79.527344 447.945312 101.582031 436.917969 117.753906 C 421.121094 139.4375 429.691406 151.789062 400.796875 180.320312 C 356.582031 224 283.722656 151.101562 327.367188 106.851562 Z M 327.367188 106.851562 " fill-opacity="1" fill-rule="evenodd"/><path fill="#ed553b" d="M 393.40625 114.246094 C 406.417969 127.265625 406.417969 148.371094 393.40625 161.398438 C 380.398438 174.417969 359.300781 174.417969 346.28125 161.398438 C 333.269531 148.382812 333.269531 127.273438 346.28125 114.246094 C 359.300781 101.230469 380.398438 101.230469 393.40625 114.246094 Z M 393.40625 114.246094 " fill-opacity="1" fill-rule="evenodd"/><path fill="#1a3f5f" d="M 222.175781 329.480469 C 221.835938 329.21875 221.761719 328.714844 222.035156 328.371094 C 222.296875 328.03125 222.800781 327.960938 223.144531 328.230469 C 223.171875 328.261719 235.167969 337.328125 249.035156 370.851562 C 249.195312 371.253906 249.003906 371.71875 248.601562 371.878906 C 248.199219 372.039062 247.734375 371.847656 247.574219 371.445312 C 233.867188 338.328125 222.214844 329.5 222.175781 329.480469 Z M 222.175781 329.480469 " fill-opacity="1" fill-rule="nonzero"/><path fill="#1a3f5f" d="M 356.390625 413.277344 L 355.421875 426.425781 C 355.089844 430.890625 352.976562 434.941406 349.824219 437.875 C 346.671875 440.804688 342.484375 442.628906 338.03125 442.628906 L 286.675781 442.628906 C 286.28125 442.628906 285.890625 442.609375 285.488281 442.589844 C 281.5 442.296875 278.003906 440.535156 275.507812 437.832031 C 273.011719 435.144531 271.507812 431.515625 271.507812 427.503906 C 271.507812 427.121094 271.53125 426.71875 271.558594 426.308594 L 272.515625 413.269531 L 274.109375 413.269531 L 273.140625 426.417969 C 273.109375 426.769531 273.101562 427.132812 273.101562 427.503906 C 273.101562 431.101562 274.441406 434.347656 276.664062 436.753906 C 278.890625 439.164062 282.023438 440.746094 285.597656 441.007812 C 285.941406 441.027344 286.300781 441.046875 286.675781 441.046875 L 338.03125 441.046875 C 342.082031 441.046875 345.875 439.386719 348.746094 436.714844 C 351.617188 434.042969 353.539062 430.355469 353.84375 426.316406 L 354.796875 413.277344 Z M 356.390625 413.277344 " fill-opacity="1" fill-rule="nonzero"/><path fill="#ed553b" d="M 755.234375 497.703125 C 735.113281 554.910156 656.917969 575.636719 624.472656 542.730469 C 592.027344 509.8125 619.972656 486.972656 627.644531 470.164062 C 683.34375 348.242188 776.429688 437.421875 755.234375 497.703125 Z M 755.234375 497.703125 " fill-opacity="1" fill-rule="evenodd"/><path fill="#1a3f5f" d="M 738.628906 494.40625 C 735.203125 504.140625 729.59375 512.503906 722.65625 519.34375 C 713.03125 528.847656 700.855469 535.425781 688.4375 538.699219 C 676.042969 541.972656 663.425781 541.945312 652.890625 538.234375 C 647.273438 536.261719 642.257812 533.230469 638.179688 529.109375 C 618.292969 508.9375 628.171875 493.683594 635.863281 481.8125 C 637.785156 478.851562 639.570312 476.089844 640.757812 473.492188 C 654.816406 442.710938 671.914062 429.410156 687.976562 427.0625 C 695.277344 425.996094 702.375 427.195312 708.882812 430.042969 C 715.398438 432.90625 721.316406 437.429688 726.253906 442.992188 C 738.546875 456.855469 744.691406 477.179688 738.628906 494.40625 Z M 723.503906 520.199219 C 730.5625 513.230469 736.28125 504.714844 739.765625 494.800781 C 745.96875 477.148438 739.714844 456.363281 727.160156 442.195312 C 722.113281 436.503906 716.050781 431.878906 709.375 428.945312 C 702.679688 426.003906 695.355469 424.773438 687.824219 425.875 C 671.390625 428.273438 653.9375 441.78125 639.679688 472.996094 C 638.53125 475.515625 636.769531 478.234375 634.867188 481.167969 C 626.941406 493.398438 616.769531 509.097656 637.332031 529.964844 C 641.542969 534.226562 646.71875 537.347656 652.507812 539.382812 C 663.265625 543.171875 676.132812 543.203125 688.75 539.878906 C 701.347656 536.542969 713.714844 529.851562 723.503906 520.199219 Z M 723.503906 520.199219 " fill-opacity="1" fill-rule="nonzero"/><path fill="#ffffff" d="M 693.726562 457.832031 C 684.332031 457.832031 676.707031 465.449219 676.707031 474.859375 C 676.707031 484.261719 684.320312 491.886719 693.726562 491.886719 C 703.121094 491.886719 710.746094 484.273438 710.746094 474.859375 C 710.734375 465.460938 703.121094 457.832031 693.726562 457.832031 Z M 693.726562 457.832031 " fill-opacity="1" fill-rule="evenodd"/><path fill="#1a3f5f" d="M 755.234375 508 C 735.113281 565.207031 656.917969 585.933594 624.472656 553.027344 C 612.925781 541.308594 606.960938 520.9375 609.136719 511.847656 L 609.136719 511.828125 C 609.1875 521.015625 613.164062 531.265625 624.464844 542.730469 C 656.910156 575.648438 735.113281 554.910156 755.222656 497.703125 C 756.855469 493.078125 757.800781 488.28125 758.144531 483.425781 C 757.953125 492.269531 757.035156 502.882812 755.234375 508 Z M 747.367188 441.851562 C 753.25 450.859375 757.054688 461.460938 757.972656 472.5625 L 758.023438 473.199219 C 756.984375 462.285156 753.1875 451.433594 747.367188 441.851562 Z M 747.367188 441.851562 " fill-opacity="1" fill-rule="evenodd"/></svg>