<svg xmlns="http://www.w3.org/2000/svg" xmlns:xlink="http://www.w3.org/1999/xlink" width="1024" zoomAndPan="magnify" viewBox="0 0 768 767.999994" height="1024" preserveAspectRatio="xMidYMid meet" version="1.0"><defs><clipPath id="1c8143625e"><path d="M 513 501 L 758.773438 501 L 758.773438 746.945312 L 513 746.945312 Z M 513 501 " clip-rule="nonzero"/></clipPath><clipPath id="1fd99bc0c1"><path d="M 32.773438 20.945312 L 573 20.945312 L 573 561 L 32.773438 561 Z M 32.773438 20.945312 " clip-rule="nonzero"/></clipPath></defs><rect x="-76.8" width="921.6" fill="#ffffff" y="-76.799999" height="921.599993" fill-opacity="1"/><rect x="-76.8" width="921.6" fill="#ffffff" y="-76.799999" height="921.599993" fill-opacity="1"/><path fill="#5d6d7e" d="M 466.898438 496.75 L 484.738281 514.601562 L 505.597656 535.347656 L 513.632812 543.445312 L 555.253906 501.796875 L 508.589844 455.0625 Z M 466.898438 496.75 " fill-opacity="1" fill-rule="nonzero"/><g clip-path="url(#1c8143625e)"><path fill="#ff8e31" d="M 597.691406 501.519531 L 741.308594 645.132812 C 752.109375 655.90625 758.816406 670.859375 758.773438 687.308594 C 758.773438 703.785156 752.109375 718.726562 741.308594 729.542969 C 730.535156 740.300781 715.613281 746.941406 699.136719 746.941406 C 682.667969 746.941406 667.765625 740.300781 656.960938 729.507812 L 513.351562 585.882812 Z M 597.691406 501.519531 " fill-opacity="1" fill-rule="nonzero"/></g><path fill="#fece59" d="M 577.871094 521.371094 L 589.542969 509.679688 L 733.171875 653.308594 C 742.242188 662.382812 747.226562 674.453125 747.222656 687.300781 C 747.222656 700.183594 742.21875 712.273438 733.171875 721.363281 C 731.519531 722.953125 729.40625 723.75 727.320312 723.75 C 725.191406 723.75 723.089844 722.953125 721.449219 721.34375 C 718.25 718.101562 718.25 712.910156 721.449219 709.695312 C 727.4375 703.726562 730.710938 695.734375 730.710938 687.277344 C 730.734375 678.859375 727.441406 670.925781 721.492188 664.988281 Z M 577.871094 521.371094 " fill-opacity="1" fill-rule="nonzero"/><path fill="#34495e" d="M 513.34375 585.882812 L 597.691406 501.515625 L 591.398438 495.207031 C 587.601562 491.398438 582.410156 489.082031 576.640625 489.082031 C 570.832031 489.082031 565.625 491.386719 561.867188 495.179688 L 507.015625 550.058594 C 503.25 553.796875 500.898438 559.003906 500.898438 564.816406 C 500.898438 570.546875 503.246094 575.816406 507.015625 579.535156 Z M 513.34375 585.882812 " fill-opacity="1" fill-rule="nonzero"/><g clip-path="url(#1fd99bc0c1)"><path fill="#34495e" d="M 32.773438 290.589844 C 32.773438 141.695312 153.503906 20.949219 302.425781 20.949219 C 451.367188 20.949219 572.089844 141.699219 572.089844 290.589844 C 572.089844 439.527344 451.351562 560.25 302.425781 560.289062 C 153.503906 560.25 32.773438 439.523438 32.773438 290.589844 Z M 32.773438 290.589844 " fill-opacity="1" fill-rule="nonzero"/></g><path fill="#5d6d7e" d="M 302.425781 531.070312 C 435.195312 531.070312 542.886719 423.417969 542.886719 290.585938 C 542.886719 157.828125 435.199219 50.144531 302.425781 50.144531 C 169.632812 50.148438 61.957031 157.824219 61.957031 290.589844 C 61.957031 423.417969 169.632812 531.070312 302.425781 531.070312 Z M 302.425781 531.070312 " fill-opacity="1" fill-rule="nonzero"/><path fill="#cee2f2" d="M 302.425781 511.824219 C 424.578125 511.824219 523.636719 412.804688 523.636719 290.589844 C 523.636719 168.464844 424.574219 69.382812 302.425781 69.382812 C 180.277344 69.382812 81.203125 168.464844 81.203125 290.589844 C 81.203125 412.796875 180.25 511.824219 302.425781 511.824219 Z M 302.425781 511.824219 " fill-opacity="1" fill-rule="nonzero"/><path fill="#ffffff" d="M 308.246094 105.703125 C 304.476562 100.113281 298 96.613281 290.875 97.019531 C 260.339844 98.875 231.480469 107.472656 205.109375 122.785156 C 195.824219 128.214844 192.640625 140.183594 198.050781 149.511719 C 203.457031 158.726562 215.441406 162.003906 224.695312 156.523438 C 245.734375 144.386719 268.757812 137.492188 293.167969 136.003906 C 303.890625 135.445312 312.136719 126.199219 311.472656 115.480469 C 311.347656 111.769531 310.105469 108.429688 308.246094 105.703125 Z M 308.246094 105.703125 " fill-opacity="1" fill-rule="nonzero"/><path fill="#ffffff" d="M 182.992188 169.835938 C 181.953125 168.28125 180.601562 166.835938 179.117188 165.605469 C 170.742188 158.753906 158.460938 160.085938 151.691406 168.453125 C 131.761719 192.921875 118.046875 222.273438 111.992188 253.511719 C 104.832031 290.613281 108.578125 328.601562 122.804688 363.410156 C 126.949219 373.445312 138.359375 378.15625 148.316406 374.054688 C 158.296875 370.011719 163.050781 358.640625 158.964844 348.605469 C 147.621094 320.847656 144.675781 290.535156 150.4375 260.921875 C 155.148438 235.984375 166.105469 212.570312 182 193.042969 C 187.53125 186.25 187.675781 176.707031 182.992188 169.835938 Z M 182.992188 169.835938 " fill-opacity="1" fill-rule="nonzero"/></svg>